<svg xmlns="http://www.w3.org/2000/svg" xmlns:xlink="http://www.w3.org/1999/xlink" preserveAspectRatio="xMidYMid" width="738" height="425" viewBox="0 0 738 425">
  <defs>
    <style>
      .cls-1 {
        fill: #fff;
        fill-rule: evenodd;
      }
    </style>
  </defs>
  <path d="M737.514,410.226 C737.504,410.241 737.491,410.253 737.481,410.267 C737.454,410.298 737.434,410.329 737.406,410.359 C737.401,410.364 737.394,410.368 737.389,410.373 C737.381,410.382 737.374,410.391 737.366,410.399 C734.925,412.819 720.624,416.369 702.488,419.051 C684.122,421.767 652.676,425.006 607.172,425.006 L114.533,425.006 C92.447,425.006 65.859,423.127 41.584,419.854 C30.911,418.415 21.498,416.805 14.365,415.199 C2.913,412.621 1.288,410.915 0.754,410.355 L0.754,410.355 C0.254,409.830 -0.000,409.254 -0.000,408.641 L-0.000,407.311 C-0.000,406.482 0.671,405.809 1.498,405.809 L305.722,405.809 C306.076,405.809 306.401,405.932 306.657,406.138 L426.952,406.138 C427.209,405.932 427.533,405.809 427.888,405.809 L736.502,405.809 C737.329,405.809 738.000,406.482 738.000,407.311 L738.000,409.001 C738.000,409.440 737.831,409.850 737.514,410.226 ZM304.223,407.640 L304.223,407.311 L1.498,407.311 C1.498,407.311 1.498,408.203 1.498,408.641 C1.498,408.858 1.615,409.084 1.837,409.318 L304.223,409.318 L304.223,407.640 ZM427.888,407.640 L305.722,407.640 C305.722,408.062 305.722,408.438 305.722,409.318 L305.722,409.318 C306.452,410.052 308.601,410.667 310.797,410.667 C312.601,410.667 332.317,410.667 350.679,410.667 C367.363,410.667 382.930,410.667 382.930,410.667 C401.293,410.667 421.982,410.667 423.785,410.667 C425.982,410.667 427.158,410.052 427.888,409.318 C427.888,408.532 427.888,408.243 427.888,407.640 ZM423.785,412.169 L382.930,412.169 L350.679,412.169 L310.797,412.169 C308.970,412.169 306.597,411.743 305.207,410.820 L4.449,410.820 L4.493,410.825 C17.466,416.090 70.261,423.504 114.533,423.504 C132.513,423.504 607.172,423.504 607.172,423.504 C680.927,423.504 722.192,415.011 733.363,410.820 L428.450,410.820 C427.296,411.726 425.763,412.169 423.785,412.169 ZM736.502,407.311 L429.386,407.311 L429.386,407.640 L429.386,409.318 L736.326,409.318 C736.439,409.201 736.502,409.094 736.502,409.001 C736.502,408.626 736.502,407.311 736.502,407.311 ZM487.827,417.537 C487.826,417.537 487.827,417.537 487.826,417.537 C487.638,417.537 487.450,417.534 487.262,417.529 C484.173,417.439 483.971,416.754 483.875,416.425 C483.785,416.118 483.850,415.678 484.305,415.365 C485.082,414.829 487.184,414.639 488.747,414.639 C488.935,414.639 489.124,414.642 489.312,414.647 C492.400,414.737 492.602,415.421 492.698,415.750 C492.788,416.058 492.724,416.497 492.270,416.810 C491.490,417.347 489.389,417.537 487.827,417.537 ZM247.135,417.529 C246.947,417.534 246.757,417.537 246.569,417.537 C245.007,417.537 242.906,417.347 242.127,416.810 C241.673,416.498 241.608,416.058 241.698,415.750 C241.794,415.421 241.996,414.737 245.085,414.647 C245.272,414.642 245.461,414.639 245.649,414.639 C247.212,414.639 249.313,414.829 250.092,415.366 C250.546,415.678 250.611,416.118 250.521,416.425 C250.424,416.754 250.224,417.439 247.135,417.529 ZM372.738,19.511 C372.738,21.575 371.067,23.250 369.007,23.250 C366.947,23.250 365.277,21.575 365.277,19.511 C365.277,17.445 366.947,15.771 369.007,15.771 C371.067,15.771 372.738,17.445 372.738,19.511 ZM366.775,19.511 C366.775,20.744 367.777,21.748 369.007,21.748 C370.238,21.748 371.240,20.744 371.240,19.511 C371.240,18.277 370.238,17.274 369.007,17.274 C367.777,17.274 366.775,18.277 366.775,19.511 ZM75.396,399.960 C75.396,404.187 78.215,405.763 79.992,405.763 L80.034,405.763 L80.034,405.779 L76.259,405.779 C74.907,404.588 73.898,402.670 73.898,399.960 L73.898,390.901 L73.898,23.285 C73.898,13.968 81.459,6.388 90.755,6.388 L647.403,6.388 C656.698,6.388 664.260,13.968 664.260,23.285 L664.260,390.901 L664.260,399.960 C664.260,402.670 663.283,404.588 661.926,405.779 L657.940,405.779 L657.940,405.763 L658.071,405.763 C660.330,405.763 662.762,403.947 662.762,399.960 L662.762,390.901 L662.762,23.285 C662.762,14.796 655.872,7.890 647.403,7.890 L90.755,7.890 C82.286,7.890 75.396,14.796 75.396,23.285 L75.396,390.901 L75.396,399.960 ZM73.103,405.779 L71.916,405.779 C71.261,403.806 70.901,401.699 70.901,399.509 L70.901,23.285 C70.901,12.312 79.807,3.385 90.755,3.385 L647.403,3.385 C658.351,3.385 667.257,12.312 667.257,23.285 L667.257,399.509 C667.257,401.699 666.896,403.806 666.242,405.779 L665.055,405.779 C665.751,403.817 666.133,401.707 666.133,399.509 L666.133,23.285 C666.133,12.933 657.731,4.511 647.403,4.511 L90.755,4.511 C80.427,4.511 72.025,12.933 72.025,23.285 L72.025,399.509 C72.025,401.707 72.407,403.817 73.103,405.779 ZM668.211,405.779 C668.807,403.793 669.130,401.689 669.130,399.509 L669.130,23.285 C669.130,11.257 659.402,1.508 647.403,1.508 L90.755,1.508 C78.755,1.508 69.028,11.257 69.028,23.285 L69.028,399.509 C69.028,401.689 69.351,403.793 69.946,405.779 L68.393,405.779 C67.835,403.783 67.530,401.681 67.530,399.509 L67.530,23.285 C67.530,10.449 77.948,0.006 90.755,0.006 L647.403,0.006 C660.210,0.006 670.628,10.449 670.628,23.285 L670.628,399.509 C670.628,401.681 670.323,403.783 669.765,405.779 L668.211,405.779 Z" class="cls-1"/>
</svg>
