<svg xmlns="http://www.w3.org/2000/svg" xmlns:xlink="http://www.w3.org/1999/xlink" preserveAspectRatio="xMidYMid" width="191.469" height="258.5" viewBox="0 0 191.469 258.5">
  <defs>
    <style>
      .cls-1 {
        fill: #fffcb6;
        fill-rule: evenodd;
      }
    </style>
  </defs>
  <path d="M190.156,93.218 L59.374,256.242 C57.300,258.827 53.524,259.241 50.939,257.168 C48.354,255.094 47.940,251.318 50.014,248.733 L180.796,85.709 C182.870,83.124 186.646,82.709 189.231,84.783 C191.816,86.857 192.230,90.633 190.156,93.218 ZM95.000,14.000 C91.134,14.000 88.000,10.866 88.000,7.000 C88.000,3.134 91.134,-0.000 95.000,-0.000 C98.866,-0.000 102.000,3.134 102.000,7.000 C102.000,10.866 98.866,14.000 95.000,14.000 ZM36.000,172.000 C31.582,172.000 28.000,168.418 28.000,164.000 C28.000,159.582 31.582,156.000 36.000,156.000 C40.418,156.000 44.000,159.582 44.000,164.000 C44.000,168.418 40.418,172.000 36.000,172.000 ZM27.298,12.007 L33.997,36.994 L8.995,30.299 L27.298,12.007 ZM24.997,203.994 L-0.005,197.299 L18.298,179.007 L24.997,203.994 ZM149.000,166.000 C149.000,162.134 152.134,159.000 156.000,159.000 C159.866,159.000 163.000,162.134 163.000,166.000 C163.000,169.866 159.866,173.000 156.000,173.000 C152.134,173.000 149.000,169.866 149.000,166.000 ZM166.997,210.994 L141.995,204.299 L160.298,186.007 L166.997,210.994 Z" class="cls-1"/>
</svg>
