<?xml version="1.0" encoding="utf-8"?>
<!-- Generator: Adobe Illustrator 16.0.0, SVG Export Plug-In . SVG Version: 6.00 Build 0)  -->
<!DOCTYPE svg PUBLIC "-//W3C//DTD SVG 1.1//EN" "http://www.w3.org/Graphics/SVG/1.1/DTD/svg11.dtd">
<svg version="1.1" id="Layer_1" xmlns="http://www.w3.org/2000/svg" xmlns:xlink="http://www.w3.org/1999/xlink" x="0px" y="0px"
	 width="100px" height="100px" viewBox="0 0 100 100" enable-background="new 0 0 100 100" xml:space="preserve">
<symbol  id="Body-woman.neckless-midle-black-white" viewBox="-45 -40 90 80">
	<g>
		<defs>
			<path id="SVGID_1_" d="M25.737-2.493L1,11L-23.737-2.493C-28.82-5.266-32-10.707-32-16.633V-32h66v15.367
				C34-10.707,30.82-5.266,25.737-2.493z"/>
		</defs>
		<use xlink:href="#SVGID_1_"  overflow="visible" fill="#ADADAD"/>
		<clipPath id="SVGID_2_">
			<use xlink:href="#SVGID_1_"  overflow="visible"/>
		</clipPath>
		<path opacity="0.2" clip-path="url(#SVGID_2_)" fill="#898989" d="M28.177-27c0,3.037-4.143,9.5-11.647,9.5
			c-2.436,0-5.415-1.393-8.136-3.091c-4.529-2.828-10.258-2.828-14.787,0c-2.721,1.698-5.7,3.091-8.136,3.091
			c-7.505,0-11.647-6.463-11.647-9.5c0-0.169,0-8,0-8h54.354C28.177-35,28.177-27.169,28.177-27z"/>
	</g>
	<g>
		<path fill="none" stroke="#898989" stroke-width="4" stroke-linejoin="round" stroke-miterlimit="10" d="M34-32v15.367
			c0,5.926-3.276,11.367-8.514,14.14L9,6.235V28H-9V5.938l-14.845-8.35C-28.882-5.246-32-10.578-32-16.357V-32"/>
		<path fill="#FFFFFF" stroke="#898989" stroke-width="2" stroke-linejoin="round" stroke-miterlimit="10" d="M13-1
			c0-4.971-5.82-13-13-13S-13-5.971-13-1s5.82,9,13,9S13,3.971,13-1z"/>
		<polyline fill="#FFFFFF" stroke="#898989" stroke-width="2" stroke-linejoin="round" stroke-miterlimit="10" points="9,-2 9,0
			9,28 -9,28 -9,-2 -9,0 		"/>
	</g>
	<polygon fill="none" points="45,40 -45,40 -45,-40 45,-40 	"/>
</symbol>
<symbol  id="ears-m-normal-white" viewBox="-51 -16 102 31">
	<g>
		<g>
			<g>
				<path fill="#FFFFFF" stroke="#898989" stroke-width="4" stroke-miterlimit="10" d="M-29-12.5L-29-12.5
					c-8.556,0-17,6.936-17,15.492v1.762C-46,9.032-44.532,12-40.254,12h0.508C-35.468,12-32,9-32,4h8v-7.992
					C-24-8.691-24.301-12.5-29-12.5z"/>
				<path fill="none" stroke="#898989" stroke-width="2" stroke-miterlimit="10" d="M-41,4.25c0,1.71-0.569,3.211,1.161,3.121
					C-38.216,7.286-37,5.955-37,4.33V0.5c0-2.209,1.791-4.5,4-4.5h4"/>
			</g>
			<g>
				<path fill="#FFFFFF" stroke="#898989" stroke-width="4" stroke-miterlimit="10" d="M29-12.5L29-12.5c8.556,0,17,6.936,17,15.492
					v1.762C46,9.032,44.532,12,40.254,12h-0.508C35.468,12,32,9,32,4h-8v-7.992C24-8.691,24.301-12.5,29-12.5z"/>
				<path fill="none" stroke="#898989" stroke-width="2" stroke-miterlimit="10" d="M41,4.25c0,1.71,0.569,3.211-1.161,3.121
					C38.216,7.286,37,5.955,37,4.33V0.5C37-1.709,35.209-4,33-4h-4"/>
			</g>
		</g>
	</g>
	<polygon fill="none" points="51,-16 -51,-16 -51,15 51,15 	"/>
	<polygon display="none" fill="none" points="-51,15 51,15 51,-16 -51,-16 	"/>
</symbol>
<symbol  id="eyebrows-normal-s" viewBox="-23 -5 46 10">
	<g>
		<g>
			<path fill="none" d="M-21.361-1.639"/>
			<path fill="none" d="M-8.639-1.639"/>
			<path fill="none" d="M-8.639-1.639"/>
			<path fill="none" stroke="#898989" stroke-width="2" stroke-miterlimit="10" d="M-8.639-1.639C-10.269-0.01-12.519,1-15,1
				s-4.731-1.01-6.361-2.639"/>
			<path fill="none" d="M-21.361-1.639"/>
		</g>
		<g>
			<path fill="none" d="M8.639-1.639"/>
			<path fill="none" d="M21.361-1.639"/>
			<path fill="none" d="M21.361-1.639"/>
			<path fill="none" stroke="#898989" stroke-width="2" stroke-miterlimit="10" d="M21.361-1.639C19.731-0.01,17.481,1,15,1
				s-4.731-1.01-6.361-2.639"/>
			<path fill="none" d="M8.639-1.639"/>
		</g>
	</g>
	<polygon fill="none" points="23,-5 -23,-5 -23,5 23,5 	"/>
</symbol>
<symbol  id="eyes-man-normal" viewBox="-26 -9 52 18">
	<g>
		<path fill="#898989" d="M-12,1c0-1.657-1.343-3-3-3l0,0c-1.657,0-3,1.343-3,3v4c0,1.657,1.343,3,3,3l0,0c1.657,0,3-1.343,3-3V1z"
			/>
		<path fill="#898989" d="M18,1c0-1.657-1.343-3-3-3l0,0c-1.657,0-3,1.343-3,3v4c0,1.657,1.343,3,3,3l0,0c1.657,0,3-1.343,3-3V1z"/>
	</g>
	<polygon fill="none" points="26,-9 -26,-9 -26,9 26,9 	"/>
</symbol>
<symbol  id="facial.hair-052-black" viewBox="-56 -38 112 76">
	<g>
		<g>
			<g>
				<polygon fill="none" points="56,-38 -56,-38 -56,38 56,38 				"/>
			</g>
		</g>
	</g>
	<g>
		<path fill="#ADACAC" d="M9.506,4.189c-3.323,0-6.515,1.132-9.499,3.366c-2.984-2.233-6.184-3.364-9.523-3.364
			c-0.357,0-0.718,0.013-1.081,0.04c-4.336,0.317-8.296,2.229-11.669,3.997c-0.666,0.35-0.995,1.064-0.818,1.779
			c0.188,0.761,0.883,1.313,1.655,1.313c0.106,0,0.214-0.01,0.324-0.032c0.744-0.146,1.484-0.373,2.201-0.591
			c1.171-0.358,2.277-0.696,3.344-0.696l0.135,0.002c1.264,0.035,2.396,0.764,3.594,1.536c0.668,0.43,1.359,0.875,2.104,1.219
			c1.807,0.833,3.936,1.31,5.841,1.31c1.487,0,2.793-0.278,3.893-0.828c1.099,0.55,2.404,0.828,3.892,0.828
			c1.905,0,4.034-0.478,5.841-1.31c0.747-0.344,1.439-0.788,2.109-1.217C13.087,10.749,14.255,10,15.572,10
			c1.097,0.012,2.183,0.344,3.333,0.695c0.719,0.22,1.463,0.447,2.214,0.594c0.063,0.013,0.147,0.021,0.211,0.021
			c0.005,0,0.081,0.003,0.115,0.003c0.034,0,0.15-0.007,0.184-0.01c0.056-0.005,0.212-0.031,0.267-0.046
			c0.139-0.04,0.266-0.096,0.395-0.172c0.036-0.021,0.136-0.084,0.169-0.11c0.593-0.447,0.829-1.241,0.561-1.919
			C23,8.98,22.944,8.861,22.874,8.752c-0.021-0.032-0.042-0.062-0.066-0.091c-0.102-0.155-0.307-0.328-0.563-0.451
			c-3.323-1.742-7.268-3.646-11.63-3.979C10.241,4.204,9.873,4.189,9.506,4.189L9.506,4.189z"/>
		<path fill="#888888" d="M3.899,13.068c1.915,0,3.903-0.518,5.423-1.218C11.396,10.894,13.17,9,15.572,9c0.017,0,0.034,0,0.051,0
			c1.92,0.021,3.819,0.939,5.69,1.308c0.006,0.001,0.013,0.002,0.019,0.002c0.014,0,0.026-0.002,0.04-0.002c0.003,0,0.007,0,0.011,0
			c0.022,0.003,0.044,0.004,0.065,0.004c0.028,0,0.055-0.002,0.083-0.005c0.034-0.004,0.069-0.006,0.101-0.015
			c0.054-0.016,0.103-0.04,0.151-0.068c0.022-0.013,0.045-0.023,0.065-0.039c0.236-0.178,0.352-0.495,0.246-0.762
			c-0.015-0.045-0.032-0.087-0.058-0.127c-0.002-0.003-0.005-0.006-0.008-0.009c-0.049-0.073-0.122-0.129-0.213-0.173
			c-3.522-1.846-7.255-3.577-11.274-3.884c-0.347-0.026-0.691-0.04-1.032-0.04c-3.546,0-6.744,1.405-9.499,3.633
			C-2.76,6.584-5.956,5.192-9.515,5.192c-0.333,0-0.669,0.012-1.008,0.037c-4.016,0.294-7.761,2.042-11.277,3.885
			c-0.648,0.34-0.244,1.206,0.373,1.206c0.043,0,0.086-0.004,0.131-0.013c1.875-0.369,3.807-1.306,5.739-1.306
			c0.054,0,0.108,0.001,0.162,0.002c2.327,0.064,4.067,1.915,6.089,2.846c1.521,0.701,3.507,1.218,5.422,1.218
			c1.408,0,2.777-0.28,3.893-0.973C1.123,12.789,2.491,13.068,3.899,13.068 M3.899,15.068c-1.451,0-2.755-0.244-3.892-0.727
			c-1.137,0.483-2.441,0.727-3.892,0.727c-2.044,0-4.326-0.511-6.259-1.402c-0.809-0.373-1.53-0.837-2.228-1.287
			c-1.125-0.724-2.096-1.35-3.08-1.377l-0.107-0.001c-0.918,0-1.955,0.317-3.052,0.652c-0.741,0.226-1.506,0.46-2.3,0.616
			c-0.17,0.034-0.344,0.05-0.517,0.05c-1.226,0-2.33-0.872-2.626-2.073c-0.288-1.17,0.244-2.337,1.325-2.904
			c3.462-1.814,7.534-3.778,12.061-4.109c0.384-0.028,0.772-0.042,1.154-0.042c3.337,0,6.534,1.052,9.522,3.13
			c2.988-2.08,6.177-3.133,9.499-3.133c0.392,0,0.79,0.015,1.184,0.045c4.542,0.347,8.589,2.293,12.028,4.095
			c0.365,0.182,0.667,0.433,0.9,0.746c0.033,0.043,0.065,0.088,0.095,0.134c0.108,0.168,0.195,0.346,0.263,0.542
			c0.394,1.081,0.019,2.317-0.927,3.03c-0.07,0.055-0.17,0.12-0.277,0.179c-0.196,0.113-0.388,0.195-0.589,0.253
			c-0.183,0.051-0.318,0.068-0.418,0.079c-0.129,0.014-0.223,0.019-0.319,0.019c-0.039,0-0.078-0.001-0.117-0.002
			c-0.129,0-0.275-0.015-0.401-0.039c-0.803-0.158-1.572-0.393-2.315-0.62c-1.08-0.33-2.1-0.641-3.013-0.651c0,0,0,0,0,0
			c-1.052,0-2.052,0.641-3.21,1.383c-0.698,0.447-1.42,0.91-2.23,1.283C8.226,14.557,5.944,15.068,3.899,15.068L3.899,15.068z"/>
	</g>
</symbol>
<symbol  id="glasses-01-normal" viewBox="-35 -13 70 26">
	<g>
		<g>
			<g>
				<g>
					<polygon fill="none" points="35,-13 -35,-13 -35,13 35,13 					"/>
				</g>
			</g>
		</g>
	</g>
	<g>
		<path opacity="0.6" fill="#FFFFFF" d="M22.05,9.661c-3.406,1.286-8.062,1.393-11.629,0.563C8.875,9.864,7.441,9.293,6.185,8.398
			c-1.429-1.017-2.21-2.33-2.295-3.951c-0.153-2.942,1.071-6.93,3.538-9.055c1.376-1.186,2.986-1.992,4.865-2.371
			c1.87-0.377,3.756-0.454,5.649-0.197c1.744,0.237,3.322,0.85,4.704,1.821c3.336,2.349,4.849,8.689,3.064,12.089
			C25.08,7.935,23.956,8.923,22.05,9.661z"/>
		<path opacity="0.6" fill="#FFFFFF" d="M-6.509,8.398c-1.257,0.895-2.69,1.466-4.236,1.825c-3.568,0.83-8.223,0.724-11.629-0.563
			c-1.906-0.738-3.031-1.727-3.66-2.927c-1.785-3.399-0.272-9.74,3.064-12.089c1.381-0.972,2.96-1.584,4.704-1.821
			c1.893-0.257,3.779-0.18,5.648,0.197c1.879,0.379,3.489,1.186,4.866,2.371c2.466,2.125,3.69,6.112,3.538,9.055
			C-4.298,6.068-5.081,7.382-6.509,8.398z"/>
		<path fill="#898989" d="M29.405,9.318c-0.318,0.157-0.651,0.281-0.987,0.37c-1.129,0.297-2.297,0.604-3.481,0.884l-0.628,0.147
			c-1.775,0.421-3.612,0.854-5.489,1.088C17.789,11.936,16.72,12,15.642,12c-3.009,0-5.933-0.514-8.235-1.446
			C5.896,9.94,4.785,9.241,3.909,8.353C3.811,8.252,3.719,8.146,3.63,8.04C3.614,8.055,3.597,8.07,3.581,8.086
			C3.135,8.504,2.595,8.363,1.975,8.365c-0.656,0.002-1.311-0.008-1.983,0c-0.655-0.008-1.311,0.002-1.966,0
			c-0.621-0.002-1.161,0.139-1.611-0.283C-3.6,8.068-3.615,8.054-3.63,8.04C-3.719,8.146-3.811,8.252-3.91,8.353
			c-0.874,0.889-1.985,1.588-3.498,2.201C-9.709,11.486-12.633,12-15.642,12c-1.078,0-2.146-0.064-3.178-0.192
			c-1.877-0.233-3.714-0.667-5.489-1.088l-0.628-0.148c-1.189-0.279-2.407-0.6-3.48-0.883c-0.336-0.089-0.668-0.213-0.987-0.37
			c-0.281-0.139-0.586-0.446-0.592-0.795c-0.011-0.676,0.003-1.36,0.042-2.035c0.03-0.501,0.447-0.866,1.038-0.91
			c0.106-0.008,0.211-0.032,0.315-0.055l0.198-0.041c0.154-0.028,0.16-0.087,0.165-0.134c0.093-0.86,0.13-1.608,0.167-2.331
			c0.085-1.713,0.159-3.192,0.927-5.304c0.505-1.387,1.308-2.611,2.387-3.641c1.775-1.694,4.128-2.675,7.192-2.999
			C-17.1-8.975-16.604-9-16.09-9c2.682,0,5.554,0.655,7.494,1.709c3.362,1.827,5.677,5.463,6.192,9.725
			c0.083,0.679,0.114,1.363,0.146,2.025c0.011,0.238,0.022,0.476,0.036,0.713c0.003,0.059,1.535,0.204,2.214,0.212
			c0.694-0.008,2.226-0.156,2.229-0.212c0.014-0.237,0.025-0.475,0.036-0.713c0.031-0.662,0.063-1.347,0.146-2.024
			c0.516-4.263,2.83-7.898,6.192-9.726C10.536-8.345,13.408-9,16.09-9c0.514,0,1.01,0.025,1.475,0.074
			c3.064,0.324,5.417,1.305,7.192,2.999c1.079,1.029,1.882,2.254,2.387,3.641c0.768,2.111,0.842,3.591,0.927,5.304
			c0.036,0.723,0.073,1.471,0.167,2.331c0.005,0.047,0.011,0.105,0.165,0.134l0.198,0.041c0.104,0.022,0.209,0.047,0.314,0.055
			c0.592,0.044,1.009,0.409,1.039,0.91c0.039,0.675,0.053,1.359,0.042,2.035C29.991,8.872,29.686,9.18,29.405,9.318z M22.425-5.083
			c-1.295-0.912-2.781-1.486-4.414-1.709c-1.775-0.241-3.598-0.178-5.419,0.189c-1.718,0.347-3.257,1.097-4.573,2.23
			C5.63-2.313,4.524,1.531,4.667,4.267c0.076,1.454,0.751,2.615,2.065,3.551c1.11,0.79,2.421,1.354,4.007,1.723
			c1.447,0.337,3.087,0.515,4.745,0.515c2.389,0,4.692-0.373,6.482-1.049c1.65-0.64,2.745-1.509,3.349-2.656
			C26.998,3.142,25.458-2.948,22.425-5.083z M-18.011-6.792c-1.632,0.223-3.118,0.797-4.414,1.709
			c-3.034,2.135-4.573,8.225-2.89,11.433c0.604,1.147,1.699,2.017,3.343,2.654c1.795,0.678,4.099,1.051,6.487,1.051
			c1.657,0,3.298-0.178,4.745-0.515c1.586-0.368,2.897-0.933,4.007-1.723c1.314-0.935,1.99-2.097,2.066-3.551
			c0.142-2.735-0.964-6.581-3.353-8.639c-1.316-1.134-2.855-1.884-4.573-2.23C-14.413-6.97-16.236-7.033-18.011-6.792z"/>
	</g>
</symbol>
<symbol  id="hair-normal-043-black" viewBox="-74 -83 148 166">
	<polygon fill="none" points="74,-83 -74,-83 -74,83 74,83 	"/>
	<g>
		<path fill="none" stroke="#898989" stroke-width="5" stroke-linecap="round" stroke-linejoin="round" stroke-miterlimit="10" d="
			M39.666,6.25c0.556,2.337,2.002,9.063,2.398,10.254c0.305,0.916,0.346,1.743,0.32,2.388c0.279,0.079,0.526,0.239,0.711,0.466
			c0.515,0.635,0.352,1.404,0.148,2.377c-0.107,0.512-0.23,1.093-0.23,1.559c0,0.24,0.026,0.513,0.052,0.82
			c0.158,1.842,0.421,4.923-2.386,9.602c-0.419,0.699-0.819,1.382-1.211,2.053c0.563,1.425,0.734,2.587,0.687,3.262
			c-0.1,1.414-1.091,1.796-1.789,1.645c-0.272-0.062-0.667-0.147-1.119-0.245c0.909,1.066,1.597,2.169,1.597,3.067
			c0,0.673-0.271,1.412-0.948,1.895c1.252,1.615,2.296,3.842,2.078,5.197c-0.145,0.902-0.789,1.505-1.68,1.574
			c-1.065,0.082-1.708-0.038-2.398-0.166c-0.662-0.122-1.413-0.26-2.854-0.26c-2.734,0-14.427,1.211-22.651,3.12
			c-5.265,1.223-11.41,1.773-15.15,2.012c0.003,0.085-0.001,0.171-0.012,0.26c-0.181,1.424-1.969,1.577-4.286,1.629l-0.357,0.004
			c-6.411,0-17.899-4.055-21.672-8.612c-2.143-2.59-3.136-4.977-3.598-6.533l0.102,0.635c0,0-0.092-0.378-0.23-0.979
			c-1.063-0.788-2.212-2.712-4.319-6.345c-0.591-1.018-1.222-2.104-1.886-3.212l-0.908-1.51c-2.88-4.781-4.467-7.414-4.467-9.223
			c0-1.182,0-3.867,1.82-4.137c-0.021-0.638,0.024-1.447,0.324-2.342c0.383-1.157,2.399-6.241,3.416-8.504"/>
		<g>
			<g>
				<g>
					<path fill="#ADADAD" stroke="#898989" stroke-width="2" stroke-linejoin="round" stroke-miterlimit="10" d="M43.244,21.734
						c-0.107,0.512-0.23,1.093-0.23,1.559c0,0.24,0.026,0.513,0.052,0.82c0.158,1.841,0.421,4.923-2.386,9.602
						c-0.669,1.116-1.305,2.212-1.9,3.238c-2.916,5.027-3.999,6.766-5.49,6.766c-0.279,0-0.555-0.072-0.795-0.21
						c-1.598-0.912-4.727-6.546-5.613-12.163c-0.217-1.372-0.395-2.268-0.525-2.923c-0.345-1.731-0.361-2.01,0.339-3.49
						c0.148-0.312,0.337-0.71,0.57-1.247c1.095-2.517,1.603-4.805,1.775-5.694c-0.282-0.549-0.739-1.57-0.965-2.817
						c-0.112-0.618-0.18-1.401,0.303-1.979c0.053-0.064,0.111-0.123,0.175-0.177c-0.051-0.871-0.067-2.08,0.113-3.166
						c0.214-1.284,0.661-1.779,1.1-2.176c0.032-0.028,0.062-0.052,0.059-0.032c0,0,0.012-0.034,0.024-0.121
						c0.054-0.436-0.051-1.33-0.161-2.275c-0.132-1.127-0.295-2.528-0.295-3.965c0-1.875,0.326-3.062,0.615-4.108
						c0.156-0.563,0.304-1.097,0.4-1.725c0.096-0.628,0.03-0.908-0.006-1.06c-0.045-0.195-0.166-0.715,0.219-1.2
						c0.23-0.291,0.645-0.479,1.016-0.479c0.08,0,0.202,0.011,0.38,0.037c0.081,0.012,0.187,0.027,0.323,0.043
						c1.66,0.185,3.624,1.695,3.61,7.82c0.161,0.245,0.538,0.715,0.825,1.072c0.945,1.177,2.121,2.643,2.538,3.997
						c0.275,0.895,0.71,2.718,1.169,4.648c0.556,2.337,1.186,4.984,1.582,6.175c0.305,0.916,0.346,1.743,0.32,2.388
						c0.279,0.079,0.526,0.239,0.711,0.466C43.61,19.992,43.447,20.762,43.244,21.734z"/>
					<path fill="#ADADAD" stroke="#898989" stroke-width="2" stroke-linejoin="round" stroke-miterlimit="10" d="M40.155,39.029
						c-0.1,1.414-1.091,1.796-1.789,1.645c-0.272-0.062-0.667-0.147-1.119-0.245c0.909,1.066,1.597,2.169,1.597,3.067
						c0,0.672-0.271,1.412-0.948,1.895c1.252,1.615,2.296,3.842,2.078,5.197c-0.145,0.902-0.789,1.505-1.68,1.574
						c-1.065,0.082-1.708-0.038-2.398-0.166c-0.662-0.122-1.413-0.26-2.854-0.26c-2.734,0-14.427,1.211-22.651,3.12
						c-5.265,1.223-11.41,1.773-15.15,2.012c0.003,0.085-0.001,0.171-0.012,0.26c-0.181,1.424-1.969,1.577-4.286,1.629l-0.357,0.004
						c-6.411,0-17.899-4.055-21.672-8.612c-2.287-2.765-3.272-5.311-3.689-6.847c-1.073-0.771-2.226-2.702-4.356-6.375
						c-0.591-1.018-1.222-2.104-1.886-3.212l-0.908-1.51c-2.88-4.781-4.467-7.414-4.467-9.223c0-1.182,0-3.867,1.82-4.137
						c-0.021-0.638,0.024-1.447,0.324-2.342c0.383-1.157,1.344-3.294,2.359-5.557c0.963-2.143,1.959-4.358,2.237-5.268
						c0.417-1.354,1.594-2.819,2.538-3.996c0.288-0.357,0.664-0.827,0.826-1.072c-0.014-6.125,1.951-7.636,3.61-7.82
						c0.138-0.016,0.242-0.031,0.323-0.043c0.177-0.026,0.3-0.037,0.379-0.037c0.372,0,0.785,0.188,1.017,0.479
						c0.385,0.485,0.263,1.005,0.218,1.2c-0.035,0.151-0.102,0.432-0.006,1.06c0.313,2.024,0.313,3.139,0.313,5.833
						c0,1.436-0.163,2.836-0.295,3.962c-0.109,0.946-0.215,1.841-0.16,2.278c0.006,0.049,0.013,0.082,0.013,0.082
						c0.021,0.031,0.046,0.05,0.068,0.071c0.44,0.396,0.887,0.892,1.101,2.176c0.181,1.086,0.166,2.295,0.114,3.166
						c0.063,0.054,0.121,0.112,0.175,0.177c0.482,0.577,0.415,1.36,0.303,1.979c-0.227,1.247-0.684,2.27-0.965,2.817
						c0.166,0.861,0.646,2.52,1.682,4.961c4.409-2.546,12.082-4.452,21.894-4.452c0,0,0.001,0,0.002,0
						c6.021,0,12.732,1.038,19.944,2.068C36.447,23.855,40.365,36.075,40.155,39.029z"/>
				</g>
				<path fill="none" stroke="#898989" stroke-width="2" stroke-linejoin="round" stroke-miterlimit="10" d="M-35.291,29.494
					c0,0,4.389-6.387,11.175-8.249"/>
			</g>
			<path fill="#ADADAD" stroke="#898989" stroke-width="2" stroke-linejoin="round" stroke-miterlimit="10" d="M-4.308,56.848
				c0,0,7.354-1.652,2.065-4.957c0,0,6.031-1.405,4.957-4.379c-1.074-2.975-3.635-2.975-3.635-2.975s1.899-2.479-1.652-3.553"/>
			<path fill="#ADADAD" stroke="#898989" stroke-width="2" stroke-linejoin="round" stroke-miterlimit="10" d="M-34.584,44.25
				c0,0-1.75-7.125-1.625-10.25"/>
		</g>
	</g>
</symbol>
<symbol  id="head-common_x5F_white-shade" viewBox="-39 -55 78 110">
	<g>
		<defs>
			<path id="SVGID_3_" d="M17.6-38.8l-8-6c-5.688-4.268-13.511-4.268-19.2,0l-8,6C-26.665-32.001-32-21.331-32-10v30
				c0,17.673,14.327,32,32,32l0,0c17.674,0,32-14.327,32-32v-30C32-21.331,26.665-32.001,17.6-38.8z"/>
		</defs>
		<use xlink:href="#SVGID_3_"  overflow="visible" fill="#FFFFFF"/>
		<clipPath id="SVGID_4_">
			<use xlink:href="#SVGID_3_"  overflow="visible"/>
		</clipPath>
		<path opacity="0.2" clip-path="url(#SVGID_4_)" fill="#888888" d="M36-2L36-2l-8.877-30.853L1.027-53.063l-15.416,8.16
			l-11.306,9.421L-36-2l0,0c5.357,0,10.097-3.473,11.71-8.582l0.659-2.085C-22.065-17.628-17.463-21-12.261-21h0.301
			c2.656,0,5.169,0.978,7.332,2.521C-3.323-17.548-1.726-17,0-17c1.727,0,3.322-0.548,4.628-1.479C6.791-20.022,9.304-21,11.96-21
			h0.302c5.201,0,9.803,3.372,11.369,8.333l0.659,2.085C25.903-5.473,30.643-2,36-2z"/>
		<use xlink:href="#SVGID_3_"  overflow="visible" fill="none" stroke="#898989" stroke-width="4" stroke-miterlimit="10"/>
	</g>
	<polygon fill="none" points="39,-55 -39,-55 -39,55 39,55 	"/>
</symbol>
<symbol  id="mouth-12-woman.normal" viewBox="-10 -4.002 20 9">
	<path fill="#DBCACA" d="M2,4.998c0,0,8-1.015,8-3.5s-4.478-5.5-10-5.5s-10,3.015-10,5.5s8,3.5,8,3.5l0,0
		C-1.229,3.265,1.229,3.265,2,4.998L2,4.998z"/>
</symbol>
<g>

		<use xlink:href="#ears-m-normal-white"  width="102" height="31" x="-51" y="-16" transform="matrix(0.5632 0 0 -0.5632 49.9375 47.2163)" overflow="visible"/>

		<use xlink:href="#Body-woman.neckless-midle-black-white"  width="90" height="80" x="-45" y="-40" transform="matrix(0.6021 0 0 -0.6021 49.8398 80.1523)" overflow="visible"/>

		<use xlink:href="#head-common_x5F_white-shade"  width="78" height="110" id="XMLID_1_" x="-39" y="-55" transform="matrix(0.6021 0 0 -0.6021 49.8398 43.8315)" overflow="visible"/>

		<use xlink:href="#eyes-man-normal"  width="52" height="18" x="-26" y="-9" transform="matrix(0.6021 0 0 -0.6021 50.4414 43.2827)" overflow="visible"/>

		<use xlink:href="#eyebrows-normal-s"  width="46" height="10" x="-23" y="-5" transform="matrix(0.6021 0 0 -0.6021 49.916 33.9521)" overflow="visible"/>

		<use xlink:href="#glasses-01-normal"  width="70" height="26" x="-35" y="-13" transform="matrix(0.6021 0 0 -0.6021 49.8398 42.6812)" overflow="visible"/>

		<use xlink:href="#mouth-12-woman.normal"  width="20" height="9" id="XMLID_2_" x="-10" y="-4.002" transform="matrix(0.6021 0 0 -0.5316 50.0498 60.5332)" overflow="visible"/>
	<g>
		<g>
			<path fill="none" stroke="#898989" stroke-width="0.6301" stroke-miterlimit="10" d="M48.11,48.1
				c-1.091,0.544-1.808,1.352-1.808,2.374c0,0.481,1.728,0.637,1.728,0.637c0.529,0.729,0.681,2.409,2.488,2.409
				c1.769,0,1.958-1.681,2.487-2.409c0,0,1.727-0.156,1.727-0.637c0-1.022-0.716-1.83-1.808-2.374"/>
		</g>
		<path opacity="0.4" fill="none" stroke="#898989" stroke-width="0.6301" stroke-miterlimit="10" d="M50.519,41.477"/>
		<path opacity="0.4" fill="none" stroke="#898989" stroke-width="0.6301" stroke-miterlimit="10" d="M50.519,49.905"/>
	</g>
	<g>
		<path fill="#ADACAC" stroke="#888888" stroke-width="0.315" stroke-miterlimit="10" d="M51.361,66.159H49.12
			c-1.022,0-1.781-0.144-1.688-0.321l1.064-2.736c0.023-0.13,0.38,0.302,1.177,0.302l1.484,0.088c0.715,0.05,0.827-0.605,1.12-0.261
			l1.071,2.57C53.404,65.99,52.477,66.159,51.361,66.159z"/>
	</g>
	<g>
		<g>
			<g>
				<rect x="18.46" y="37.859" fill="none" width="62.563" height="43.441"/>
			</g>
			<g>
				<path fill="#ADACAC" stroke="#888888" stroke-width="0.6301" stroke-miterlimit="10" d="M68.655,54.71
					c-0.251-2.616,0.721-4.926,0.596-5.831c-0.1-0.723-0.118-1.229-0.105-1.671c0.023-0.772,0.823-3.274,0.334-2.721
					c-0.306,0.346-1.574,2.905-1.615,3.418c-0.072,0.843-0.151,1.726-0.281,2.313c-0.481,2.182-2.595,6.576-4.804,8.051
					c-1.609,1.075-2.229,3.658-6.021,4.863c-1.42,0.452-4.273,3.257-6.398,3.257c-1.576,0-4.202-1.844-5.41-2.184
					c-3.884-1.093-4.71-4.631-6.396-5.759c-2.211-1.479-4.519-4.841-5.001-7.021c-0.128-0.586-0.209-1.472-0.28-2.316
					c-0.042-0.514-2.392-3.561-2.698-3.906c-0.489-0.553,0.791,1.836,0.813,2.607c0.015,0.441-0.005,0.947-0.104,1.668
					c-0.133,0.963,0.326,3.606,0.196,6.523c-0.289,6.501,5.553,12.084,10.27,16.021l1.461,2.043c0.93,0.776,5.883,2.277,7.051,2.277
					l4.888-1.067c1.217,0,2.4-0.471,3.347-1.307l0.854-1.237C64.115,68.524,69.296,61.391,68.655,54.71z"/>
			</g>
		</g>
		<g>
			<g>
				<g>
					<g>
						<path fill="none" stroke="#888888" stroke-width="0.6301" stroke-miterlimit="10" d="M62.925,68.623c0-2.13,0-3.231,0-5.358"
							/>
					</g>
				</g>
				<g>
					<g>
						<path fill="none" stroke="#888888" stroke-width="0.6301" stroke-miterlimit="10" d="M60.322,71.544c0-2.129,0-3.608,0-5.737"
							/>
						<path fill="none" stroke="#888888" stroke-width="0.6301" stroke-miterlimit="10" d="M57.667,73.979c0-2.129,0-5.069,0-7.198"
							/>
					</g>
					<g>
						<path fill="none" stroke="#888888" stroke-width="0.6301" stroke-miterlimit="10" d="M55.116,75.441c0-2.731,0-5.779,0-7.307"
							/>
						<path fill="none" stroke="#888888" stroke-width="0.6301" stroke-miterlimit="10" d="M51.646,75.928c0-2.129,0-4.689,0-6.818"
							/>
					</g>
				</g>
			</g>
			<g>
				<g>
					<g>
						<path fill="none" stroke="#888888" stroke-width="0.6301" stroke-miterlimit="10" d="M49.042,75.928c0-2.129,0-4.689,0-6.818"
							/>
						<path fill="none" stroke="#888888" stroke-width="0.6301" stroke-miterlimit="10" d="M46.006,75.441c0-2.129,0-5.177,0-7.307"
							/>
					</g>
					<g>
						<path fill="none" stroke="#888888" stroke-width="0.6301" stroke-miterlimit="10" d="M43.02,73.493c0-2.129,0-4.583,0-6.712"
							/>
						<path fill="none" stroke="#888888" stroke-width="0.6301" stroke-miterlimit="10" d="M40.363,71.42c0-2.129,0-3.484,0-5.613"
							/>
					</g>
				</g>
				<g>
					<g>
						<path fill="none" stroke="#888888" stroke-width="0.6301" stroke-miterlimit="10" d="M37.76,68.135c0-2.129,0-2.743,0-4.87"/>
					</g>
				</g>
			</g>
		</g>
	</g>
		<use xlink:href="#facial.hair-052-black"  width="112" height="76" x="-56" y="-38" transform="matrix(0.42 0 0 -0.42 50.4414 62.4961)" overflow="visible"/>
		<use xlink:href="#hair-normal-043-black"  width="148" height="166" x="-74" y="-83" transform="matrix(0.6021 0 0 -0.6021 50 39.665)" overflow="visible"/>
</g>
</svg>
