<svg xmlns="http://www.w3.org/2000/svg" xmlns:xlink="http://www.w3.org/1999/xlink" preserveAspectRatio="xMidYMid" width="863" height="1734" viewBox="0 0 863 1734">
  <defs>
    <style>
      .cls-1 {
        fill: #fff;
        fill-rule: evenodd;
      }
    </style>
  </defs>
  <path d="M859.961,500.000 L853.000,500.000 L853.000,1640.274 C853.000,1665.339 843.165,1688.877 825.307,1706.553 C807.424,1724.252 783.574,1734.000 758.148,1734.000 L103.184,1734.000 C50.148,1734.000 7.000,1691.955 7.000,1640.274 L7.000,660.000 L4.039,660.000 C2.132,660.000 0.000,658.486 0.000,656.461 L0.000,539.539 C0.000,537.514 2.132,536.000 4.039,536.000 L7.000,536.000 L7.000,500.000 L4.039,500.000 C2.132,500.000 0.000,498.486 0.000,496.461 L0.000,379.539 C0.000,377.514 2.132,376.000 4.039,376.000 L7.000,376.000 L7.000,279.000 L6.039,279.000 C4.132,279.000 2.000,277.486 2.000,275.461 L2.000,222.539 C2.000,220.514 4.132,219.000 6.039,219.000 L7.000,219.000 L7.000,94.027 C7.000,69.023 17.073,45.430 35.364,27.594 C53.613,9.800 77.699,0.000 103.184,0.000 L758.148,0.000 C810.450,0.000 853.000,42.181 853.000,94.027 L853.000,376.000 L859.961,376.000 C861.807,376.000 863.000,377.389 863.000,379.539 L863.000,496.461 C863.000,498.611 861.807,500.000 859.961,500.000 ZM7.000,221.000 L6.039,221.000 C5.067,221.000 4.000,221.806 4.000,222.539 L4.000,275.461 C4.000,276.194 5.067,277.000 6.039,277.000 L7.000,277.000 L7.000,221.000 ZM7.000,378.000 L4.039,378.000 C3.067,378.000 2.000,378.806 2.000,379.539 L2.000,496.461 C2.000,497.194 3.067,498.000 4.039,498.000 L7.000,498.000 L7.000,378.000 ZM4.039,538.000 C3.067,538.000 2.000,538.806 2.000,539.539 L2.000,656.461 C2.000,657.194 3.067,658.000 4.039,658.000 L7.000,658.000 L7.000,538.000 L4.039,538.000 ZM851.000,500.000 L851.000,376.000 L851.000,94.027 C851.000,43.283 809.347,2.000 758.148,2.000 L103.184,2.000 C78.223,2.000 54.634,11.598 36.761,29.026 C18.859,46.482 9.000,69.567 9.000,94.027 L9.000,219.000 L9.000,279.000 L9.000,376.000 L9.000,500.000 L9.000,536.000 L9.000,660.000 L9.000,1640.274 C9.000,1690.852 51.250,1732.000 103.184,1732.000 L758.148,1732.000 C783.043,1732.000 806.395,1722.458 823.900,1705.131 C841.376,1687.834 851.000,1664.801 851.000,1640.274 L851.000,500.000 ZM861.000,379.539 C861.000,378.837 860.820,378.000 859.961,378.000 L853.000,378.000 L853.000,498.000 L859.961,498.000 C860.820,498.000 861.000,497.163 861.000,496.461 L861.000,379.539 ZM816.410,1697.205 C801.162,1712.550 780.795,1721.000 759.060,1721.000 L102.040,1721.000 C56.803,1721.000 20.000,1684.559 20.000,1639.766 L20.000,94.235 C20.000,49.442 56.803,13.000 102.040,13.000 L759.060,13.000 C780.795,13.000 801.162,21.451 816.410,36.795 C831.622,52.104 840.000,72.503 840.000,94.235 L840.000,1639.766 C840.000,1661.497 831.622,1681.897 816.410,1697.205 ZM838.000,94.235 C838.000,73.036 829.829,53.137 814.992,38.206 C800.122,23.241 780.258,15.000 759.060,15.000 L102.040,15.000 C57.906,15.000 22.000,50.545 22.000,94.235 L22.000,1639.766 C22.000,1683.456 57.906,1719.000 102.040,1719.000 L759.060,1719.000 C780.258,1719.000 800.122,1710.759 814.992,1695.795 C829.829,1680.863 838.000,1660.966 838.000,1639.766 L838.000,94.235 ZM55.000,1541.000 L53.000,1541.000 L53.000,1539.000 L53.000,205.000 L53.000,203.000 L55.000,203.000 L805.000,203.000 L807.000,203.000 L807.000,205.000 L807.000,1539.000 L807.000,1541.000 L805.000,1541.000 L55.000,1541.000 ZM805.000,205.000 L55.000,205.000 L55.000,1539.000 L805.000,1539.000 L805.000,205.000 ZM488.000,116.000 L371.000,116.000 C367.691,116.000 365.000,113.309 365.000,110.000 C365.000,106.691 367.691,104.000 371.000,104.000 L488.000,104.000 C491.309,104.000 494.000,106.691 494.000,110.000 C494.000,113.309 491.309,116.000 488.000,116.000 ZM488.000,106.000 L371.000,106.000 C368.794,106.000 367.000,107.794 367.000,110.000 C367.000,112.206 368.794,114.000 371.000,114.000 L488.000,114.000 C490.206,114.000 492.000,112.206 492.000,110.000 C492.000,107.794 490.206,106.000 488.000,106.000 ZM430.385,72.553 C422.833,72.553 416.689,66.409 416.689,58.856 C416.689,51.305 422.833,45.161 430.385,45.161 C437.936,45.161 444.080,51.305 444.080,58.856 C444.080,66.409 437.936,72.553 430.385,72.553 ZM430.385,47.161 C423.936,47.161 418.689,52.408 418.689,58.856 C418.689,65.306 423.936,70.553 430.385,70.553 C436.834,70.553 442.080,65.306 442.080,58.856 C442.080,52.408 436.834,47.161 430.385,47.161 ZM295.389,126.301 C287.137,126.301 280.423,119.587 280.423,111.336 C280.423,103.084 287.137,96.370 295.389,96.370 C303.641,96.370 310.354,103.084 310.354,111.336 C310.354,119.587 303.641,126.301 295.389,126.301 ZM295.389,98.370 C288.240,98.370 282.423,104.187 282.423,111.336 C282.423,118.485 288.240,124.301 295.389,124.301 C302.538,124.301 308.354,118.485 308.354,111.336 C308.354,104.187 302.538,98.370 295.389,98.370 ZM430.654,1564.417 C465.158,1564.417 493.228,1592.487 493.228,1626.991 C493.228,1661.495 465.158,1689.565 430.654,1689.565 C396.151,1689.565 368.080,1661.495 368.080,1626.991 C368.080,1592.487 396.151,1564.417 430.654,1564.417 ZM430.654,1687.565 C464.055,1687.565 491.229,1660.392 491.229,1626.991 C491.229,1593.591 464.055,1566.417 430.654,1566.417 C397.253,1566.417 370.080,1593.591 370.080,1626.991 C370.080,1660.392 397.253,1687.565 430.654,1687.565 Z" class="cls-1"/>
</svg>
