<svg xmlns="http://www.w3.org/2000/svg" xmlns:xlink="http://www.w3.org/1999/xlink" preserveAspectRatio="xMidYMid" width="22.969" height="23.062" viewBox="0 0 22.969 23.062">
  <defs>
    <style>
      .cls-1 {
        fill: #fff;
        fill-rule: evenodd;
      }
    </style>
  </defs>
  <path d="M4.496,8.066 C4.725,8.117 4.954,8.117 5.158,8.117 L5.158,8.628 C5.184,12.413 8.776,16.121 11.477,16.121 C14.178,16.121 17.771,12.413 17.771,8.654 L17.771,8.347 C18.051,8.245 18.306,8.143 18.586,8.040 C18.866,7.913 18.994,7.580 18.866,7.273 C18.764,7.043 18.535,6.915 18.306,6.941 C17.898,2.466 15.478,0.011 11.477,0.011 C7.222,0.011 4.878,2.415 4.623,6.915 C4.343,6.915 4.088,7.094 4.037,7.375 C3.986,7.708 4.190,8.015 4.496,8.066 ZM16.624,8.654 C16.624,11.927 13.414,14.970 11.477,14.970 C9.541,14.970 6.330,11.902 6.330,8.654 L6.330,7.989 C7.732,7.605 8.700,6.455 9.260,5.406 C9.744,6.327 10.458,7.146 11.401,7.759 C12.496,8.475 13.745,8.833 15.095,8.833 C15.579,8.807 16.114,8.756 16.624,8.654 L16.624,8.654 ZM5.897,5.739 C6.687,5.611 7.247,4.614 7.400,4.281 C7.553,4.000 7.426,3.642 7.146,3.514 C6.967,3.438 6.789,3.438 6.636,3.514 C7.553,1.929 9.158,1.136 11.477,1.136 C13.618,1.136 14.968,1.929 15.834,3.080 C15.121,3.156 14.484,2.773 14.178,2.466 C13.949,2.236 13.592,2.236 13.363,2.466 C13.133,2.696 13.133,3.054 13.363,3.284 C13.923,3.847 14.764,4.256 15.656,4.256 C15.936,4.256 16.191,4.205 16.471,4.128 C16.624,4.486 16.777,4.844 16.879,5.227 C15.503,5.483 14.382,5.330 13.567,4.742 C12.292,3.847 12.063,2.236 12.063,2.210 C12.012,1.903 11.732,1.673 11.426,1.724 C11.120,1.776 10.891,2.057 10.917,2.364 C10.917,2.440 11.197,4.486 12.879,5.688 C13.643,6.225 14.586,6.506 15.656,6.506 C16.114,6.506 16.599,6.455 17.108,6.353 C17.159,6.634 17.185,6.915 17.210,7.197 C17.210,7.222 17.236,7.248 17.236,7.273 C14.688,8.092 12.904,7.324 12.012,6.736 C10.636,5.841 9.770,4.333 9.770,2.849 C9.770,2.543 9.515,2.287 9.209,2.287 C8.904,2.287 8.649,2.543 8.649,2.849 C8.649,3.131 8.674,3.438 8.725,3.719 C8.700,3.770 8.674,3.796 8.674,3.847 C8.649,3.975 7.859,6.506 5.795,6.890 C5.795,6.506 5.821,6.097 5.897,5.739 ZM22.688,21.976 L16.471,18.013 L15.401,16.376 C15.248,16.172 14.993,16.070 14.739,16.146 L11.477,17.246 L8.216,16.146 C7.961,16.070 7.706,16.146 7.553,16.376 L6.483,18.013 L0.266,21.976 C0.011,22.156 -0.091,22.513 0.087,22.769 C0.189,22.948 0.393,23.025 0.572,23.025 C0.674,23.025 0.775,22.999 0.877,22.922 L6.891,19.087 L9.464,20.621 C9.694,20.749 9.974,20.723 10.152,20.545 L11.477,19.215 L12.802,20.545 C12.904,20.647 13.057,20.723 13.210,20.723 C13.312,20.723 13.414,20.698 13.516,20.647 L16.089,19.112 L22.102,22.948 C22.204,22.999 22.306,23.050 22.408,23.050 C22.586,23.050 22.790,22.948 22.892,22.795 C23.020,22.488 22.943,22.130 22.688,21.976 ZM9.668,19.419 L7.706,18.243 L8.267,17.374 L10.840,18.243 L9.668,19.419 ZM13.286,19.419 L12.114,18.243 L14.688,17.374 L15.248,18.243 L13.286,19.419 Z" class="cls-1"/>
</svg>
