<svg xmlns="http://www.w3.org/2000/svg">

  <symbol id="profileIco" viewBox="0 0 22.969 23.062">
    <path d="M4.496,8.066 C4.725,8.117 4.954,8.117 5.158,8.117 L5.158,8.628 C5.184,12.413 8.776,16.121 11.477,16.121 C14.178,16.121 17.771,12.413 17.771,8.654 L17.771,8.347 C18.051,8.245 18.306,8.143 18.586,8.040 C18.866,7.913 18.994,7.580 18.866,7.273 C18.764,7.043 18.535,6.915 18.306,6.941 C17.898,2.466 15.478,0.011 11.477,0.011 C7.222,0.011 4.878,2.415 4.623,6.915 C4.343,6.915 4.088,7.094 4.037,7.375 C3.986,7.708 4.190,8.015 4.496,8.066 ZM16.624,8.654 C16.624,11.927 13.414,14.970 11.477,14.970 C9.541,14.970 6.330,11.902 6.330,8.654 L6.330,7.989 C7.732,7.605 8.700,6.455 9.260,5.406 C9.744,6.327 10.458,7.146 11.401,7.759 C12.496,8.475 13.745,8.833 15.095,8.833 C15.579,8.807 16.114,8.756 16.624,8.654 L16.624,8.654 ZM5.897,5.739 C6.687,5.611 7.247,4.614 7.400,4.281 C7.553,4.000 7.426,3.642 7.146,3.514 C6.967,3.438 6.789,3.438 6.636,3.514 C7.553,1.929 9.158,1.136 11.477,1.136 C13.618,1.136 14.968,1.929 15.834,3.080 C15.121,3.156 14.484,2.773 14.178,2.466 C13.949,2.236 13.592,2.236 13.363,2.466 C13.133,2.696 13.133,3.054 13.363,3.284 C13.923,3.847 14.764,4.256 15.656,4.256 C15.936,4.256 16.191,4.205 16.471,4.128 C16.624,4.486 16.777,4.844 16.879,5.227 C15.503,5.483 14.382,5.330 13.567,4.742 C12.292,3.847 12.063,2.236 12.063,2.210 C12.012,1.903 11.732,1.673 11.426,1.724 C11.120,1.776 10.891,2.057 10.917,2.364 C10.917,2.440 11.197,4.486 12.879,5.688 C13.643,6.225 14.586,6.506 15.656,6.506 C16.114,6.506 16.599,6.455 17.108,6.353 C17.159,6.634 17.185,6.915 17.210,7.197 C17.210,7.222 17.236,7.248 17.236,7.273 C14.688,8.092 12.904,7.324 12.012,6.736 C10.636,5.841 9.770,4.333 9.770,2.849 C9.770,2.543 9.515,2.287 9.209,2.287 C8.904,2.287 8.649,2.543 8.649,2.849 C8.649,3.131 8.674,3.438 8.725,3.719 C8.700,3.770 8.674,3.796 8.674,3.847 C8.649,3.975 7.859,6.506 5.795,6.890 C5.795,6.506 5.821,6.097 5.897,5.739 ZM22.688,21.976 L16.471,18.013 L15.401,16.376 C15.248,16.172 14.993,16.070 14.739,16.146 L11.477,17.246 L8.216,16.146 C7.961,16.070 7.706,16.146 7.553,16.376 L6.483,18.013 L0.266,21.976 C0.011,22.156 -0.091,22.513 0.087,22.769 C0.189,22.948 0.393,23.025 0.572,23.025 C0.674,23.025 0.775,22.999 0.877,22.922 L6.891,19.087 L9.464,20.621 C9.694,20.749 9.974,20.723 10.152,20.545 L11.477,19.215 L12.802,20.545 C12.904,20.647 13.057,20.723 13.210,20.723 C13.312,20.723 13.414,20.698 13.516,20.647 L16.089,19.112 L22.102,22.948 C22.204,22.999 22.306,23.050 22.408,23.050 C22.586,23.050 22.790,22.948 22.892,22.795 C23.020,22.488 22.943,22.130 22.688,21.976 ZM9.668,19.419 L7.706,18.243 L8.267,17.374 L10.840,18.243 L9.668,19.419 ZM13.286,19.419 L12.114,18.243 L14.688,17.374 L15.248,18.243 L13.286,19.419 Z" />
  </symbol>


  <symbol id="profileGen" viewBox="0 0 150 150">
    <circle fill="#FD8469" cx="75.054" cy="75.054" r="74.946"/>
    <g>
    	<path fill="#84DBFF" d="M75.408,107.157c-0.118,0-0.237,0.117-0.354,0.117s-0.235-0.117-0.354-0.117H75.408z"/>
    	<path fill="#84DBFF" d="M133.24,122.265C119.55,139.142,98.54,150,75.054,150c-23.487,0-44.495-10.858-58.187-27.735
    		c9.796-13.102,24.786-19.593,37.061-22.78c-0.944,7.79,3.068,18.177,3.186,17.941c4.131-9.443,17.94-10.269,17.94-10.269
    		s13.81,0.825,17.822,10.269c0.117,0.235,4.249-10.151,3.187-17.941C108.455,102.672,123.562,109.163,133.24,122.265z"/>
    </g>
    <path fill="#FFFFFF" d="M91.932,92.168c0,0,0,0,0,0.118c0,1.181-0.59,8.732-16.523,14.753H74.7
    	c-15.933-6.021-16.523-13.572-16.523-14.753c0-0.118,0-0.118,0-0.118c0-1.534,0.354-3.069,0.708-4.603
    	c4.603,5.782,10.15,9.677,16.169,9.677c6.021,0,11.567-3.895,16.17-9.677C91.578,89.099,91.932,90.634,91.932,92.168z"/>
    <g>
    	<path fill="#54C0EB" d="M91.932,92.168c0,0,0.826,8.498-16.878,15.106c0,0,13.81,0.827,17.822,10.269
    		C93.112,117.78,101.019,97.242,91.932,92.168z"/>
    	<path fill="#54C0EB" d="M58.177,92.168c-9.088,5.074-1.181,25.612-0.944,25.258c4.13-9.443,17.821-10.269,17.821-10.269
    		C57.35,100.666,58.177,92.168,58.177,92.168z"/>
    </g>
    <g>
    	<path fill="#FFFFFF" d="M99.839,62.308c-1.062,7.317-4.249,14.163-9.56,19.355c-1.063,1.063-2.007,1.889-3.188,2.715l-1.889-6.02
    		H64.904l-1.889,6.02c-3.776-2.833-11.684-10.74-11.802-18.176c-3.304-42.371,29.152-33.4,29.152-33.4
    		C102.2,31.267,101.492,50.505,99.839,62.308z"/>
    	<path fill="#FFFFFF" d="M104.206,69.979c-1.651,2.714-3.895,4.603-6.02,5.311c0.827-1.888,1.535-3.895,2.125-5.901c0,0,0,0,0-0.118
    		c0.472-1.77,0.944-3.541,1.416-5.311h-0.117c0.471-1.77,0.944-3.541,1.297-5.311c0.473,0,0.944,0.235,1.417,0.472
    		C106.921,60.773,106.803,65.612,104.206,69.979z"/>
    	<path fill="#FFFFFF" d="M51.921,75.29c-2.125-0.708-4.367-2.597-6.02-5.311c-2.714-4.367-2.714-9.206-0.118-10.74
    		c0.237-0.118,0.354-0.236,0.59-0.236c1.417,5.547,3.069,9.678,3.423,10.504C50.387,71.396,51.095,73.402,51.921,75.29z"/>
    </g>
    <path id="SVGCleanerId_0" fill="#324A5E" d="M87.919,20.999c0.944-10.859-16.288-10.15-16.288-10.15
    	c-26.083,3.777-28.916,28.09-28.916,28.09l3.541-4.249c-5.547,12.156,2.833,33.047,3.541,34.699
    	c4.367,14.518,14.045,27.854,25.257,27.854c11.213,0,20.891-13.336,25.258-27.854l0,0c0,0,0,0,0-0.118
    	c0.472-1.77,0.944-3.541,1.299-5.311h-0.118c2.359-9.442,4.957-19.002,4.957-19.002C113.176,11.084,87.919,20.999,87.919,20.999z
    	 M99.839,62.308c-1.062,7.317-4.249,14.163-9.56,19.355c-1.063,1.063-2.125,1.889-3.188,2.715l-1.889-5.9H64.904l-1.889,6.019
    	c-3.776-2.833-6.963-6.729-9.56-11.213c-1.181-2.36-1.889-4.838-2.243-6.963c-3.304-42.371,29.152-33.401,29.152-33.401
    	C102.2,31.267,101.492,50.505,99.839,62.308z"/>
    <g>
    	<path id="SVGCleanerId_0_1_" fill="#324A5E" d="M87.919,20.999c0.944-10.859-16.288-10.15-16.288-10.15
    		c-26.083,3.777-28.916,28.09-28.916,28.09l3.541-4.249c-5.547,12.156,2.833,33.047,3.541,34.699
    		c4.367,14.518,14.045,27.854,25.257,27.854c11.213,0,20.891-13.336,25.258-27.854l0,0c0,0,0,0,0-0.118
    		c0.472-1.77,0.944-3.541,1.299-5.311h-0.118c2.359-9.442,4.957-19.002,4.957-19.002C113.176,11.084,87.919,20.999,87.919,20.999z
    		 M99.839,62.308c-1.062,7.317-4.249,14.163-9.56,19.355c-1.063,1.063-2.125,1.889-3.188,2.715l-1.889-5.9H64.904l-1.889,6.019
    		c-3.776-2.833-6.963-6.729-9.56-11.213c-1.181-2.36-1.889-4.838-2.243-6.963c-3.304-42.371,29.152-33.401,29.152-33.401
    		C102.2,31.267,101.492,50.505,99.839,62.308z"/>
    </g>
    <path fill="#324A5E" d="M87.919,20.999c0.944-10.859-16.288-10.15-16.288-10.15c-26.083,3.777-28.916,28.09-28.916,28.09
    	l3.541-4.249c-5.547,12.156,2.833,33.047,3.541,34.699c4.367,14.518,14.045,27.854,25.257,27.854
    	c11.213,0,20.891-13.336,25.258-27.854l0,0c0,0,0,0,0-0.118c0.472-1.77,0.944-3.541,1.299-5.311h-0.118
    	c2.359-9.442,4.957-19.002,4.957-19.002C113.176,11.084,87.919,20.999,87.919,20.999z M99.839,62.308
    	c-1.062,7.317-4.249,14.163-9.56,19.355c-1.063,1.063-2.125,1.889-3.188,2.715l-1.889-5.9H64.904l-1.889,6.019
    	c-3.776-2.833-11.684-10.741-11.802-18.176c-3.304-42.371,29.152-33.401,29.152-33.401C102.2,31.267,101.492,50.505,99.839,62.308z"
    	/>
    <path fill="#FFFFFF" d="M66.792,82.489c2.006,2.243,4.958,3.777,8.262,3.777c3.305,0,6.256-1.417,8.262-3.777H66.792z"/>
  </symbol>

  <symbol id="storyIco" viewBox="0 0 150 150">
    <g>
    	<path fill="#FBB03B" d="M120.531,25.741v112.541c0,1.295-1.049,2.344-2.344,2.344H40.844v4.688h84.375V25.768l-4.661-0.026
    		C120.549,25.742,120.54,25.741,120.531,25.741z"/>
    	<path fill="#FCC062" d="M115.844,135.938V18.75h-4.688v110.156c0,1.295-1.049,2.344-2.344,2.344h-75v4.688H115.844L115.844,135.938
    		z"/>
    	<path fill="#FDD089" d="M106.469,126.563V11.719H39.953v16.968c0,1.613,1.312,2.925,2.925,2.925s2.925-1.312,2.925-2.925V18.149
    		c0-1.294,1.049-2.344,2.343-2.344s2.344,1.049,2.344,2.344v10.537c0,4.198-3.415,7.613-7.612,7.613
    		c-4.198,0-7.613-3.415-7.613-7.613V11.719h-8.483v114.844H106.469z M73.657,75H59.594c-1.294,0-2.343-1.05-2.343-2.344
    		s1.049-2.343,2.343-2.343h14.063c1.294,0,2.343,1.049,2.343,2.343C76,73.951,74.951,75,73.657,75z M50.219,51.563h32.813
    		c1.295,0,2.344,1.049,2.344,2.344s-1.049,2.344-2.344,2.344H50.219c-1.294,0-2.344-1.049-2.344-2.344S48.924,51.563,50.219,51.563z
    		 M50.219,60.938h32.813c1.295,0,2.344,1.049,2.344,2.344s-1.049,2.344-2.344,2.344H50.219c-1.294,0-2.344-1.049-2.344-2.344
    		S48.924,60.938,50.219,60.938z"/>
    	<path d="M127.576,21.094l-6.992-0.039c-0.006,0-0.01,0-0.014,0c-0.014,0-0.025,0.002-0.039,0.002v-4.651
    		c0-1.294-1.049-2.344-2.344-2.344h-7.031V9.375c0-1.294-1.049-2.344-2.344-2.344H50.466C50.167,3.104,46.88,0,42.878,0
    		s-7.29,3.104-7.588,7.031H24.438c-1.294,0-2.343,1.049-2.343,2.344v119.531c0,1.295,1.049,2.344,2.343,2.344h4.688v7.031
    		c0,1.294,1.049,2.344,2.344,2.344h4.688v7.031c0,1.295,1.049,2.344,2.344,2.344h89.063c1.294,0,2.344-1.049,2.344-2.344V23.438
    		C129.906,22.148,128.865,21.101,127.576,21.094z M125.219,145.313H40.844v-4.688h77.343c1.295,0,2.344-1.05,2.344-2.344V25.741
    		c0.009,0,0.018,0.002,0.026,0.002l4.661,0.026V145.313z M26.782,11.719h8.484v16.968c0,4.198,3.415,7.613,7.612,7.613
    		s7.612-3.415,7.612-7.613V18.149c0-1.294-1.049-2.344-2.344-2.344c-1.294,0-2.344,1.049-2.344,2.344v10.537
    		c0,1.613-1.312,2.925-2.925,2.925s-2.924-1.312-2.924-2.925V11.719h66.515v114.844H26.782V11.719z M33.813,131.25h75
    		c1.295,0,2.344-1.049,2.344-2.344V18.75h4.688v117.188H33.812L33.813,131.25L33.813,131.25z M42.878,4.688
    		c1.414,0,2.596,1.008,2.866,2.344h-5.733C40.282,5.696,41.464,4.688,42.878,4.688z"/>
    	<path fill="#FFFFFF" d="M50.219,56.25h32.813c1.295,0,2.344-1.049,2.344-2.344s-1.049-2.344-2.344-2.344H50.219
    		c-1.294,0-2.344,1.049-2.344,2.344S48.924,56.25,50.219,56.25z"/>
    	<path fill="#FFFFFF" d="M50.219,65.625h32.813c1.295,0,2.344-1.049,2.344-2.344s-1.049-2.344-2.344-2.344H50.219
    		c-1.294,0-2.344,1.049-2.344,2.344S48.924,65.625,50.219,65.625z"/>
    	<path fill="#FFFFFF" d="M73.657,70.313H59.594c-1.294,0-2.343,1.049-2.343,2.344S58.299,75,59.594,75h14.063
    		C74.951,75,76,73.951,76,72.656S74.951,70.313,73.657,70.313z"/>
    </g>
  </symbol>


  <symbol id="frontEndKit" viewBox="0 0 150 150">
    <rect x="73.115" y="18.9" fill="#F7B239" width="72.193" height="75.972"/>
    <rect x="73.115" y="6.719" fill="#2BA5F7" width="72.193" height="12.181"/>
    <rect x="4.691" y="105.843" fill="#E6E6E6" width="140.617" height="39.437"/>
    <rect x="4.691" y="6.72" fill="#2197D8" width="55.353" height="88.154"/>
    <g>
    	<path fill="#333333" d="M145.309,102.989H4.691c-1.577,0-2.855,1.278-2.855,2.854v39.436c0,1.578,1.278,2.855,2.855,2.855h140.617
    		c1.577,0,2.855-1.277,2.855-2.855v-39.436C148.164,104.268,146.886,102.989,145.309,102.989z M142.453,116.135h-11.036v-7.436
    		h11.036V116.135z M7.546,129.281v-7.438h4.464v7.438H7.546z M17.721,121.844h12.144v7.438H17.721V121.844z M113.563,116.135v-7.436
    		h12.144v7.436H113.563z M106.989,129.281v-7.438h12.144v7.438H106.989z M89.135,129.281v-7.438h12.144v7.438H89.135z
    		 M53.428,129.281v-7.438h12.144v7.438H53.428z M35.575,129.281v-7.438h12.143v7.438H35.575z M71.282,121.844h12.144v7.438H71.282
    		V121.844z M107.852,116.135H95.708v-7.436h12.144V116.135z M89.999,116.135H77.855v-7.436h12.144V116.135z M72.145,116.135H60.001
    		v-7.436h12.144V116.135z M54.291,116.135H42.147v-7.436h12.144V116.135z M36.438,116.135H24.294v-7.436h12.144V116.135
    		L36.438,116.135z M36.438,134.99v7.435H24.294v-7.435H36.438z M42.147,134.99h12.144v7.435H42.147V134.99z M60.001,134.99h29.998
    		v7.435H60.001V134.99z M95.708,134.99h12.144v7.435H95.708V134.99z M113.563,134.99h12.144v7.435h-12.144V134.99z M124.843,129.281
    		v-7.438h7.437v7.438H124.843z M137.989,121.844h4.464v7.438h-4.464V121.844z M18.584,108.698v7.437H7.546v-7.437H18.584z
    		 M7.546,134.99h11.038v7.435H7.546V134.99z M131.417,142.425v-7.435h11.036v7.435H131.417z"/>
    	<path fill="#333333" d="M4.691,97.728h55.351c1.577,0,2.854-1.279,2.854-2.855V6.72c0-1.577-1.278-2.855-2.854-2.855H4.691
    		c-1.577,0-2.855,1.278-2.855,2.855v88.152C1.836,96.448,3.115,97.728,4.691,97.728z M7.546,9.575h49.641v82.443H7.546V9.575z"/>
    	<path fill="#333333" d="M145.309,3.865H73.115c-1.577,0-2.855,1.278-2.855,2.855v88.152c0,1.576,1.278,2.855,2.855,2.855h72.193
    		c1.576,0,2.855-1.279,2.855-2.855V6.72C148.164,5.143,146.886,3.865,145.309,3.865z M142.453,9.575v6.471H75.97V9.575H142.453z
    		 M75.97,92.018V21.756h66.483v70.262H75.97z"/>
    	<path fill="#333333" d="M47.974,18.211H16.759c-1.576,0-2.854,1.278-2.854,2.855c0,1.577,1.278,2.854,2.854,2.854h31.215
    		c1.577,0,2.855-1.278,2.855-2.854C50.829,19.49,49.55,18.211,47.974,18.211z"/>
    	<path fill="#333333" d="M16.759,35.813h15.625c1.577,0,2.855-1.278,2.855-2.855c0-1.577-1.279-2.855-2.855-2.855H16.759
    		c-1.576,0-2.854,1.278-2.854,2.855C13.904,34.536,15.183,35.813,16.759,35.813z"/>
    	<path fill="#333333" d="M47.974,41.995H16.759c-1.576,0-2.854,1.278-2.854,2.855c0,1.577,1.278,2.855,2.854,2.855h31.215
    		c1.577,0,2.855-1.278,2.855-2.855C50.829,43.273,49.55,41.995,47.974,41.995z"/>
    	<path fill="#333333" d="M16.759,59.598h15.625c1.577,0,2.855-1.278,2.855-2.855c0-1.577-1.279-2.854-2.855-2.854H16.759
    		c-1.576,0-2.854,1.278-2.854,2.854C13.904,58.319,15.183,59.598,16.759,59.598z"/>
    	<path fill="#333333" d="M47.974,65.779H16.759c-1.576,0-2.854,1.279-2.854,2.854c0,1.577,1.278,2.855,2.854,2.855h31.215
    		c1.577,0,2.855-1.278,2.855-2.855C50.829,67.058,49.55,65.779,47.974,65.779z"/>
    	<path fill="#333333" d="M32.384,77.673H16.759c-1.576,0-2.854,1.276-2.854,2.854c0,1.576,1.278,2.855,2.854,2.855h15.625
    		c1.577,0,2.855-1.279,2.855-2.855C35.24,78.949,33.961,77.673,32.384,77.673z"/>
    	<path fill="#333333" d="M97.621,42.5c-1.115-1.115-2.923-1.115-4.038,0L82.548,53.536c-1.115,1.114-1.115,2.923,0,4.038
    		l11.035,11.035c0.559,0.557,1.289,0.836,2.021,0.836c0.729,0,1.46-0.278,2.018-0.836c1.114-1.115,1.114-2.923,0-4.038l-9.017-9.017
    		l9.017-9.017C98.737,45.423,98.737,43.615,97.621,42.5z"/>
    	<path fill="#333333" d="M124.84,42.5c-1.114-1.115-2.923-1.115-4.037,0c-1.115,1.115-1.115,2.923,0,4.038l9.018,9.017l-9.018,9.017
    		c-1.115,1.115-1.115,2.923,0,4.038c0.559,0.558,1.287,0.836,2.02,0.836c0.729,0,1.46-0.278,2.018-0.836l11.036-11.036
    		c1.115-1.115,1.115-2.923,0-4.038L124.84,42.5z"/>
    	<path fill="#333333" d="M113.301,34.514c-1.53-0.385-3.079,0.544-3.466,2.073l-6.786,27.026c-0.384,1.53,0.545,3.081,2.074,3.465
    		c0.233,0.058,0.469,0.086,0.697,0.086c1.277,0,2.442-0.864,2.766-2.16l6.788-27.026C115.759,36.449,114.83,34.898,113.301,34.514z"
    		/>
    </g>
  </symbol>

  <symbol id="newsletterIco" viewBox="0 0 100 100">
    <g>
    	<polygon fill="#E9E7D1" points="94.438,61.329 94.438,44.979 77.864,34.299 77.864,71.393 	"/>
    	<polygon fill="#E9E7D1" points="94.438,93.283 94.438,66.176 70.92,80.454 	"/>
    	<polygon fill="#E9E7D1" points="48.884,73.156 9.528,95.644 90.111,95.644 	"/>
    	<polygon fill="#E9E7D1" points="5.353,93.256 28.331,80.127 5.353,66.176 	"/>
    </g>
    <rect x="36.428" y="35.562" fill="#D8D8D8" width="20.718" height="8.287"/>
    <polygon fill="#E9E7D1" points="50.931,17.289 41.581,23.132 60.281,23.132 "/>
    <path fill="#F28544" d="M32.442,77.776l15.39-8.793c0.625-0.358,1.39-0.36,2.019-0.021l16.864,9.199l7.008-4.256
    	c0-0.006-0.002-0.011-0.002-0.017V27.275H26.069V73.89c0,0.006-0.003,0.011-0.003,0.017L32.442,77.776z M32.285,33.491
    	c0-1.145,0.927-2.072,2.072-2.072h24.861c1.145,0,2.071,0.927,2.071,2.072v12.43c0,1.145-0.927,2.072-2.071,2.072H34.357
    	c-1.145,0-2.072-0.927-2.072-2.072V33.491L32.285,33.491z M32.285,52.136h33.148v4.144H32.285V52.136z M32.285,60.423h33.148v4.144
    	H32.285V60.423z"/>
    <polygon fill="#E9E7D1" points="21.927,71.393 21.927,34.299 5.353,44.979 5.353,61.329 "/>
    <g>
    	<path fill="#314E55" d="M97.633,42.107L78.342,29.677c-0.147-0.096-0.317-0.133-0.478-0.187v-4.287
    		c0-1.145-0.927-2.072-2.072-2.072h-7.694L52.03,13.088c-0.672-0.42-1.526-0.42-2.198,0L33.764,23.132h-9.765
    		c-1.145,0-2.072,0.927-2.072,2.072v4.286c-0.163,0.054-0.33,0.091-0.48,0.188L2.158,42.107c-0.591,0.382-0.949,1.038-0.949,1.742
    		v53.865c0,1.146,0.927,2.071,2.072,2.071H96.51c1.146,0,2.072-0.925,2.072-2.071V43.85C98.582,43.146,98.223,42.49,97.633,42.107z
    		 M28.331,80.127L5.353,93.256v-27.08L28.331,80.127z M48.884,73.156l41.228,22.487H9.528L48.884,73.156z M94.438,93.283
    		L70.92,80.454l23.519-14.278V93.283z M94.438,44.979v16.351L77.864,71.393V34.299L94.438,44.979z M50.931,17.289l9.35,5.843h-18.7
    		L50.931,17.289z M26.069,27.275h47.651V73.89c0,0.006,0.002,0.011,0.002,0.017l-7.008,4.256l-16.864-9.199
    		c-0.629-0.34-1.394-0.338-2.019,0.021l-15.39,8.794l-6.375-3.871c0-0.006,0.003-0.011,0.003-0.017L26.069,27.275L26.069,27.275z
    		 M21.927,34.299v37.094L5.353,61.329V44.979L21.927,34.299z"/>
    	<path fill="#314E55" d="M34.357,47.993h24.862c1.145,0,2.071-0.927,2.071-2.072v-12.43c0-1.145-0.927-2.072-2.071-2.072H34.357
    		c-1.145,0-2.072,0.927-2.072,2.072v12.43C32.285,47.065,33.212,47.993,34.357,47.993z M36.428,35.562h20.718v8.288H36.428V35.562z"
    		/>
    	<rect x="32.285" y="52.136" fill="#314E55" width="33.148" height="4.144"/>
    	<rect x="32.285" y="60.423" fill="#314E55" width="33.148" height="4.144"/>
    	<path fill="#314E55" d="M88.224,25.204c0.528,0,1.059-0.203,1.463-0.607l7.324-7.325c0.809-0.809,0.809-2.12,0-2.929
    		c-0.81-0.809-2.119-0.81-2.928,0l-7.325,7.324c-0.81,0.81-0.81,2.121,0,2.93C87.162,25.001,87.692,25.204,88.224,25.204z"/>
    	<path fill="#314E55" d="M10.103,24.597c0.404,0.404,0.935,0.607,1.465,0.607s1.061-0.203,1.465-0.607
    		c0.809-0.81,0.809-2.121,0-2.93l-7.324-7.324c-0.809-0.81-2.121-0.81-2.93,0s-0.809,2.121,0,2.929L10.103,24.597z"/>
    	<path fill="#314E55" d="M70.879,14.697c0.252,0.102,0.513,0.148,0.77,0.148c0.822,0,1.601-0.492,1.924-1.303l4.144-10.359
    		c0.425-1.062-0.094-2.268-1.154-2.692c-1.054-0.423-2.27,0.089-2.694,1.155l-4.144,10.359
    		C69.299,13.066,69.816,14.272,70.879,14.697z"/>
    	<path fill="#314E55" d="M28.29,13.542c0.324,0.811,1.103,1.303,1.924,1.303c0.257,0,0.518-0.046,0.769-0.148
    		c1.062-0.424,1.58-1.631,1.156-2.693L27.994,1.646c-0.425-1.066-1.639-1.578-2.693-1.155c-1.062,0.425-1.58,1.63-1.156,2.692
    		L28.29,13.542z"/>
    </g>
  </symbol>

  <symbol id="addmeIco" viewBox="0 0 50 50">
    <rect x="37.207" y="15.94" width="5.342" height="19.417"/>
    <rect x="30.18" y="22.972" width="19.379" height="5.342"/>
    <ellipse cx="16.407" cy="19.449" rx="9.364" ry="11.26"/>
    <path d="M31.271,41.811H1.547c-0.438,0-0.699-0.492-0.45-0.848c3.664-5.338,9.16-8.729,15.31-8.729
    	c6.15,0,11.646,3.391,15.312,8.729C31.965,41.324,31.705,41.811,31.271,41.811z"/>
  </symbol>


  <symbol id="writerbg" viewBox="0 0 301 160">
    <path d="M299.121,91.214 L296.816,91.214 L296.816,94.006 C296.816,95.034 295.983,95.867 294.955,95.867 C293.927,95.867 293.094,95.034 293.094,94.006 L293.094,91.214 L290.327,91.214 C289.290,91.214 288.449,90.373 288.449,89.335 C288.449,88.298 289.290,87.457 290.327,87.457 L293.094,87.457 L293.094,85.127 C293.094,84.099 293.927,83.266 294.955,83.266 C295.983,83.266 296.816,84.099 296.816,85.127 L296.816,87.457 L299.121,87.457 C300.159,87.457 301.000,88.298 301.000,89.335 C301.000,90.373 300.159,91.214 299.121,91.214 ZM280.341,139.826 C277.600,139.826 275.378,137.594 275.378,134.841 C275.378,132.087 277.600,129.855 280.341,129.855 C283.082,129.855 285.304,132.087 285.304,134.841 C285.304,137.594 283.082,139.826 280.341,139.826 ZM274.686,85.087 C272.901,85.087 271.454,83.637 271.454,81.850 C271.454,80.062 272.901,78.613 274.686,78.613 C276.470,78.613 277.917,80.062 277.917,81.850 C277.917,83.637 276.470,85.087 274.686,85.087 ZM249.119,117.023 L247.506,117.023 L247.506,118.991 C247.506,119.724 246.911,120.318 246.178,120.318 C245.445,120.318 244.851,119.724 244.851,118.991 L244.851,117.023 L242.891,117.023 C242.157,117.023 241.562,116.428 241.562,115.694 C241.562,114.959 242.157,114.364 242.891,114.364 L244.851,114.364 L244.851,112.743 C244.851,112.010 245.445,111.416 246.178,111.416 C246.911,111.416 247.506,112.010 247.506,112.743 L247.506,114.364 L249.119,114.364 C249.853,114.364 250.449,114.959 250.449,115.694 C250.449,116.428 249.853,117.023 249.119,117.023 ZM247.243,47.514 L244.938,47.514 L244.938,50.307 C244.938,51.334 244.104,52.168 243.077,52.168 C242.049,52.168 241.215,51.334 241.215,50.307 L241.215,47.514 L238.449,47.514 C237.411,47.514 236.570,46.673 236.570,45.636 C236.570,44.598 237.411,43.757 238.449,43.757 L241.215,43.757 L241.215,41.427 C241.215,40.400 242.049,39.566 243.077,39.566 C244.104,39.566 244.938,40.400 244.938,41.427 L244.938,43.757 L247.243,43.757 C248.280,43.757 249.121,44.598 249.121,45.636 C249.121,46.673 248.280,47.514 247.243,47.514 ZM238.417,147.930 C238.417,146.775 239.353,145.838 240.509,145.838 C241.664,145.838 242.600,146.775 242.600,147.930 L242.600,150.549 L245.237,150.549 C246.394,150.549 247.332,151.487 247.332,152.644 C247.332,153.802 246.394,154.740 245.237,154.740 L242.600,154.740 L242.600,157.908 C242.600,159.063 241.664,160.000 240.509,160.000 C239.353,160.000 238.417,159.063 238.417,157.908 L238.417,154.740 L235.290,154.740 C234.132,154.740 233.194,153.802 233.194,152.644 C233.194,151.487 234.132,150.549 235.290,150.549 L238.417,150.549 L238.417,147.930 ZM230.367,102.659 C228.582,102.659 227.135,101.210 227.135,99.422 C227.135,97.634 228.582,96.185 230.367,96.185 C232.151,96.185 233.598,97.634 233.598,99.422 C233.598,101.210 232.151,102.659 230.367,102.659 ZM225.086,26.705 C222.345,26.705 220.123,24.473 220.123,21.720 C220.123,18.966 222.345,16.734 225.086,16.734 C227.827,16.734 230.049,18.966 230.049,21.720 C230.049,24.473 227.827,26.705 225.086,26.705 ZM223.499,134.147 C223.499,136.901 221.277,139.133 218.537,139.133 C215.796,139.133 213.574,136.901 213.574,134.147 C213.574,131.394 215.796,129.162 218.537,129.162 C221.277,129.162 223.499,131.394 223.499,134.147 ZM208.349,45.607 L206.707,45.607 L206.707,47.574 C206.707,48.307 206.112,48.902 205.379,48.902 C204.646,48.902 204.052,48.307 204.052,47.574 L204.052,45.607 L202.121,45.607 C201.387,45.607 200.792,45.012 200.792,44.277 C200.792,43.543 201.387,42.948 202.121,42.948 L204.052,42.948 L204.052,41.298 C204.052,40.565 204.646,39.971 205.379,39.971 C206.112,39.971 206.707,40.565 206.707,41.298 L206.707,42.948 L208.349,42.948 C209.083,42.948 209.679,43.543 209.679,44.277 C209.679,45.012 209.083,45.607 208.349,45.607 ZM201.830,85.578 L204.424,85.578 C205.589,85.578 206.534,86.523 206.534,87.688 C206.534,88.853 205.589,89.798 204.424,89.798 L201.830,89.798 L201.830,92.937 C201.830,94.092 200.894,95.029 199.738,95.029 C198.583,95.029 197.647,94.092 197.647,92.937 L197.647,89.798 L194.534,89.798 C193.369,89.798 192.424,88.853 192.424,87.688 C192.424,86.523 193.369,85.578 194.534,85.578 L197.647,85.578 L197.647,82.959 C197.647,81.804 198.583,80.867 199.738,80.867 C200.894,80.867 201.830,81.804 201.830,82.959 L201.830,85.578 ZM179.599,81.561 C176.850,81.561 174.621,79.328 174.621,76.575 C174.621,73.822 176.850,71.589 179.599,71.589 C182.348,71.589 184.576,73.822 184.576,76.575 C184.576,79.328 182.348,81.561 179.599,81.561 ZM163.524,33.303 L161.667,33.303 L161.667,35.520 C161.667,36.337 161.004,37.000 160.187,37.000 C159.369,37.000 158.706,36.337 158.706,35.520 L158.706,33.303 L156.476,33.303 C155.661,33.303 155.000,32.642 155.000,31.826 C155.000,31.011 155.661,30.350 156.476,30.350 L158.706,30.350 L158.706,28.480 C158.706,27.663 159.369,27.000 160.187,27.000 C161.004,27.000 161.667,27.663 161.667,28.480 L161.667,30.350 L163.524,30.350 C164.339,30.350 165.000,31.011 165.000,31.826 C165.000,32.642 164.339,33.303 163.524,33.303 ZM149.028,91.792 C146.288,91.792 144.066,89.560 144.066,86.806 C144.066,84.053 146.288,81.821 149.028,81.821 C151.769,81.821 153.991,84.053 153.991,86.806 C153.991,89.560 151.769,91.792 149.028,91.792 ZM140.098,14.942 C137.349,14.942 135.121,12.710 135.121,9.957 C135.121,7.203 137.349,4.971 140.098,4.971 C142.847,4.971 145.075,7.203 145.075,9.957 C145.075,12.710 142.847,14.942 140.098,14.942 ZM123.347,22.746 L121.733,22.746 L121.733,24.713 C121.733,25.446 121.139,26.040 120.406,26.040 C119.673,26.040 119.078,25.446 119.078,24.713 L119.078,22.746 L117.119,22.746 C116.384,22.746 115.789,22.150 115.789,21.416 C115.789,20.682 116.384,20.087 117.119,20.087 L119.078,20.087 L119.078,18.437 C119.078,17.704 119.673,17.110 120.406,17.110 C121.139,17.110 121.733,17.704 121.733,18.437 L121.733,20.087 L123.347,20.087 C124.081,20.087 124.676,20.682 124.676,21.416 C124.676,22.150 124.081,22.746 123.347,22.746 ZM117.073,86.634 C117.073,85.732 117.805,85.000 118.707,85.000 C119.610,85.000 120.341,85.732 120.341,86.634 L120.341,88.683 L122.377,88.683 C123.273,88.683 124.000,89.409 124.000,90.306 C124.000,91.203 123.273,91.929 122.377,91.929 L120.341,91.929 L120.341,94.366 C120.341,95.268 119.610,96.000 118.707,96.000 C117.805,96.000 117.073,95.268 117.073,94.366 L117.073,91.929 L114.623,91.929 C113.727,91.929 113.000,91.203 113.000,90.306 C113.000,89.409 113.727,88.683 114.623,88.683 L117.073,88.683 L117.073,86.634 ZM94.640,50.867 C92.855,50.867 91.408,49.211 91.408,47.168 C91.408,45.124 92.855,43.468 94.640,43.468 C96.424,43.468 97.871,45.124 97.871,47.168 C97.871,49.211 96.424,50.867 94.640,50.867 ZM94.351,120.535 C94.351,121.564 93.516,122.399 92.487,122.399 L90.167,122.399 L90.167,125.191 C90.167,126.219 89.334,127.052 88.306,127.052 C87.278,127.052 86.445,126.219 86.445,125.191 L86.445,122.399 L83.664,122.399 C82.634,122.399 81.800,121.564 81.800,120.535 C81.800,119.505 82.634,118.670 83.664,118.670 L86.445,118.670 L86.445,116.312 C86.445,115.284 87.278,114.451 88.306,114.451 C89.334,114.451 90.167,115.284 90.167,116.312 L90.167,118.670 L92.487,118.670 C93.516,118.670 94.351,119.505 94.351,120.535 ZM84.639,30.780 L82.319,30.780 L82.319,33.572 C82.319,34.600 81.486,35.433 80.458,35.433 C79.430,35.433 78.597,34.600 78.597,33.572 L78.597,30.780 L75.816,30.780 C74.786,30.780 73.952,29.946 73.952,28.916 C73.952,27.887 74.786,27.052 75.816,27.052 L78.597,27.052 L78.597,24.693 C78.597,23.666 79.430,22.832 80.458,22.832 C81.486,22.832 82.319,23.666 82.319,24.693 L82.319,27.052 L84.639,27.052 C85.668,27.052 86.503,27.887 86.503,28.916 C86.503,29.946 85.668,30.780 84.639,30.780 ZM78.655,145.679 C78.655,148.433 76.433,150.665 73.692,150.665 C70.951,150.665 68.729,148.433 68.729,145.679 C68.729,142.926 70.951,140.694 73.692,140.694 C76.433,140.694 78.655,142.926 78.655,145.679 ZM68.325,101.734 C66.285,101.734 64.632,100.078 64.632,98.035 C64.632,95.991 66.285,94.335 68.325,94.335 C70.365,94.335 72.018,95.991 72.018,98.035 C72.018,100.078 70.365,101.734 68.325,101.734 ZM59.092,60.115 C57.052,60.115 55.399,58.459 55.399,56.416 C55.399,54.373 57.052,52.717 59.092,52.717 C61.132,52.717 62.785,54.373 62.785,56.416 C62.785,58.459 61.132,60.115 59.092,60.115 ZM49.541,9.971 C46.801,9.971 44.579,7.739 44.579,4.985 C44.579,2.232 46.801,-0.000 49.541,-0.000 C52.282,-0.000 54.504,2.232 54.504,4.985 C54.504,7.739 52.282,9.971 49.541,9.971 ZM41.547,113.092 L39.933,113.092 L39.933,115.060 C39.933,115.793 39.339,116.387 38.606,116.387 C37.873,116.387 37.279,115.793 37.279,115.060 L37.279,113.092 L35.319,113.092 C34.585,113.092 33.989,112.497 33.989,111.763 C33.989,111.029 34.585,110.433 35.319,110.433 L37.279,110.433 L37.279,108.784 C37.279,108.051 37.873,107.457 38.606,107.457 C39.339,107.457 39.933,108.051 39.933,108.784 L39.933,110.433 L41.547,110.433 C42.281,110.433 42.876,111.029 42.876,111.763 C42.876,112.497 42.281,113.092 41.547,113.092 ZM33.510,62.890 L30.873,62.890 L30.873,66.058 C30.873,67.214 29.937,68.150 28.781,68.150 C27.626,68.150 26.689,67.214 26.689,66.058 L26.689,62.890 L23.562,62.890 C22.405,62.890 21.467,61.952 21.467,60.795 C21.467,59.637 22.405,58.699 23.562,58.699 L26.689,58.699 L26.689,56.051 C26.689,54.896 27.626,53.959 28.781,53.959 C29.937,53.959 30.873,54.896 30.873,56.051 L30.873,58.699 L33.510,58.699 C34.667,58.699 35.605,59.637 35.605,60.795 C35.605,61.952 34.667,62.890 33.510,62.890 ZM32.775,26.098 L31.162,26.098 L31.162,28.066 C31.162,28.799 30.568,29.393 29.834,29.393 C29.101,29.393 28.507,28.799 28.507,28.066 L28.507,26.098 L26.547,26.098 C25.813,26.098 25.218,25.503 25.218,24.769 C25.218,24.034 25.813,23.439 26.547,23.439 L28.507,23.439 L28.507,21.790 C28.507,21.057 29.101,20.462 29.834,20.462 C30.568,20.462 31.162,21.057 31.162,21.790 L31.162,23.439 L32.775,23.439 C33.510,23.439 34.105,24.034 34.105,24.769 C34.105,25.503 33.510,26.098 32.775,26.098 ZM12.811,130.549 C10.070,130.549 7.848,128.317 7.848,125.564 C7.848,122.810 10.070,120.578 12.811,120.578 C15.552,120.578 17.774,122.810 17.774,125.564 C17.774,128.317 15.552,130.549 12.811,130.549 ZM4.155,35.144 C1.860,35.144 -0.000,33.281 -0.000,30.983 C-0.000,28.684 1.860,26.821 4.155,26.821 C6.450,26.821 8.310,28.684 8.310,30.983 C8.310,33.281 6.450,35.144 4.155,35.144 ZM27.732,141.040 L30.844,141.040 L30.844,138.421 C30.844,137.266 31.781,136.329 32.936,136.329 C34.092,136.329 35.028,137.266 35.028,138.421 L35.028,141.040 L37.621,141.040 C38.787,141.040 39.731,141.985 39.731,143.150 C39.731,144.315 38.787,145.260 37.621,145.260 L35.028,145.260 L35.028,148.399 C35.028,149.555 34.092,150.491 32.936,150.491 C31.781,150.491 30.844,149.555 30.844,148.399 L30.844,145.260 L27.732,145.260 C26.566,145.260 25.622,144.315 25.622,143.150 C25.622,141.985 26.566,141.040 27.732,141.040 Z"/>
  </symbol>

  <symbol id="readIco" viewBox="0 0 50 50">
    <path d="M49.084,30.448c-0.01-0.121-0.04-0.242-0.07-0.373L42.575,9.639c-0.99-3.224-4.406-5.054-7.641-4.063
			c-0.96,0.293-1.506,1.304-1.213,2.274c0.293,0.96,1.305,1.505,2.273,1.212c1.314-0.394,2.699,0.344,3.104,1.658
			c0,0.009,0,0.009,0.01,0.02l4.326,13.756c-1.293-0.566-2.719-0.879-4.224-0.879c-5.196,0-9.522,3.769-10.381,8.721h-7.671
			c-0.869-4.952-5.195-8.721-10.379-8.721c-1.476,0-2.891,0.303-4.164,0.859l4.325-13.746c0-0.009,0-0.009,0.01-0.02
			c0.395-1.314,1.789-2.052,3.103-1.658c0.96,0.293,1.98-0.252,2.273-1.213c0.294-0.96-0.252-1.981-1.213-2.274
			c-3.224-0.98-6.649,0.839-7.64,4.073L1.037,30.075c-0.021,0.061-0.03,0.12-0.051,0.182c-0.485,1.203-0.748,2.526-0.748,3.9
			c0,5.813,4.73,10.542,10.542,10.542c1.981,0,3.911-0.556,5.579-1.598c0.849-0.535,1.111-1.656,0.576-2.506
			c-0.535-0.849-1.658-1.111-2.506-0.576c-1.092,0.688-2.355,1.041-3.648,1.041c-3.811,0-6.903-3.093-6.903-6.903
			s3.093-6.902,6.903-6.902c3.81,0,6.903,3.092,6.903,6.902c0,1.001,0.818,1.82,1.819,1.82h9.338
			c0.87,4.951,5.195,8.722,10.38,8.722c1.982,0,3.911-0.556,5.579-1.598c0.85-0.535,1.112-1.656,0.576-2.506
			c-0.535-0.849-1.658-1.111-2.506-0.576c-1.092,0.688-2.354,1.041-3.649,1.041c-3.811,0-6.902-3.093-6.902-6.903
			s3.092-6.902,6.902-6.902s6.904,3.092,6.904,6.902c0,1.001,0.817,1.82,1.818,1.82s1.819-0.819,1.819-1.82
			C49.762,32.854,49.52,31.601,49.084,30.448z"/>
  </symbol>

  <symbol id="loveIco" viewBox="0 0 50 50">
    <path d="M24.851,9.542c2.009-4.76,6.597-8.086,11.932-8.086c7.188,0,12.363,6.149,13.016,13.478
  	c0,0,0.351,1.819-0.423,5.094c-1.052,4.46-3.527,8.423-6.864,11.447L24.851,47.231L7.488,31.474
  	c-3.336-3.022-5.812-6.986-6.864-11.447c-0.773-3.274-0.422-5.094-0.422-5.094C0.853,7.604,6.029,1.456,13.217,1.456
  	C18.554,1.456,22.843,4.782,24.851,9.542z"/>
  </symbol>

</svg>
