<?xml version="1.0" encoding="utf-8"?>
<!-- Generator: Adobe Illustrator 16.0.0, SVG Export Plug-In . SVG Version: 6.00 Build 0)  -->
<!DOCTYPE svg PUBLIC "-//W3C//DTD SVG 1.1//EN" "http://www.w3.org/Graphics/SVG/1.1/DTD/svg11.dtd">
<svg version="1.1" id="Layer_1" xmlns="http://www.w3.org/2000/svg" xmlns:xlink="http://www.w3.org/1999/xlink" x="0px" y="0px"
	 width="100px" height="100px" viewBox="0 0 100 100" enable-background="new 0 0 100 100" xml:space="preserve">
<path fill="#508DA3" d="M34.26,91.579H1.471c-0.659,0-1.192-0.534-1.192-1.192v-23.95H34.26V91.579z"/>
<path fill="#5D9EBA" d="M34.26,90.164H1.471c-0.659,0-1.192-0.535-1.192-1.193V65.019H34.26V90.164z"/>
<rect x="1.783" y="77.942" fill="#E0C8A2" width="33.482" height="10.575"/>
<path fill="#FCE8CA" d="M27.378,60.3c-2.448,0-4.432,1.984-4.432,4.43c0-1.757-1.023-3.278-2.51-3.993
	c-0.582-0.281-1.231-0.437-1.92-0.437H1.783v22.378h15.327c1.237,0,2.383,0.386,3.327,1.042c1.518,1.055,2.51,2.809,2.51,4.797
	c0-3.225,2.614-5.839,5.838-5.839h15.327V80.49V60.3H27.378L27.378,60.3z"/>
<g>
	<rect x="29.406" y="65.019" fill="#4D4D4D" width="11.216" height="2.46"/>
	<rect x="29.406" y="75.969" fill="#4D4D4D" width="11.216" height="2.46"/>
	<rect x="29.406" y="70.494" fill="#4D4D4D" width="11.216" height="2.46"/>
	<rect x="6.156" y="65.019" fill="#4D4D4D" width="11.215" height="2.46"/>
	<rect x="6.156" y="75.969" fill="#4D4D4D" width="11.215" height="2.46"/>
	<rect x="6.156" y="70.494" fill="#4D4D4D" width="11.215" height="2.46"/>
</g>
<g>
	<path fill="#EDD9BE" d="M22.946,64.729v23.787c0-1.988-0.992-3.742-2.51-4.797V60.736C21.923,61.451,22.946,62.973,22.946,64.729z"
		/>
	<path fill="#EDD9BE" d="M22.946,64.729v23.787c0-1.988,0.993-3.742,2.512-4.797V60.736C23.971,61.451,22.946,62.973,22.946,64.729z
		"/>
</g>
<path fill="#F9C573" d="M65.828,63.88H44.745c-7.636,0-13.826,6.19-13.826,13.825V98h48.735V77.705
	C79.654,70.07,73.464,63.88,65.828,63.88z"/>
<path fill="#E0B394" d="M65.015,57v12.42c0,5.372-4.356,9.728-9.729,9.728c-5.374,0-9.728-4.355-9.728-9.728V57H65.015L65.015,57z"
	/>
<path fill="#E2AF66" d="M55.286,80.266c-5.98,0-10.846-4.866-10.846-10.846V57c0-0.617,0.5-1.119,1.118-1.119h19.457
	c0.618,0,1.118,0.502,1.118,1.119v12.42C66.133,75.399,61.269,80.266,55.286,80.266z M46.676,58.117V69.42
	c0,4.747,3.862,8.609,8.61,8.609c4.749,0,8.611-3.861,8.611-8.609V58.117H46.676z"/>
<g>
	<path fill="#E0B394" d="M31.72,44.982c-2.772-0.123-4.979-2.41-4.979-5.212c0-2.878,2.334-5.214,5.216-5.214
		c0.259,0,0.514,0.018,0.764,0.056L31.72,44.982z"/>
	<path fill="#E0B394" d="M78.851,44.982c2.771-0.123,4.98-2.41,4.98-5.212c0-2.878-2.337-5.214-5.218-5.214
		c-0.26,0-0.516,0.02-0.765,0.056L78.851,44.982z"/>
</g>
<path fill="#E2AF66" d="M53.264,63.88h-8.518c-7.637,0-13.826,6.19-13.826,13.825V98h8.519V77.705
	C39.438,70.07,45.628,63.88,53.264,63.88z"/>
<path fill="#F7CBA4" d="M76.742,55.586c-0.442,0.771-0.944,1.509-1.505,2.202c-0.927,1.147-2.007,2.184-3.229,3.071l-1.036,0.751
	l-1.875,1.364l-4.557,3.311l-1.71,1.242c-0.09,0.064-0.18,0.128-0.271,0.19c-1.997,1.375-4.287,2.121-6.604,2.241
	c-0.747,0.041-1.494,0.014-2.236-0.078c-2.112-0.256-4.176-1.042-5.98-2.354l-0.505-0.366l-1.979-1.438l-4.484-3.26L38.897,61.1
	l-0.333-0.24c-1.482-1.079-2.756-2.371-3.796-3.817c-0.551-0.768-1.039-1.582-1.452-2.432c-1.357-2.767-1.954-5.897-1.648-9.067
	l1.592-16.472c1.096-11.343,10.63-20,22.026-20c5.7,0,10.931,2.164,14.877,5.746c3.945,3.581,6.602,8.583,7.15,14.254l1.593,16.472
	C79.247,49.09,78.459,52.593,76.742,55.586z"/>
<path fill="#E8BA97" d="M37.379,48.79c-0.154,2.609,0.695,5.175,2.376,7.176l9.592,11.785c0.5,0.597,1.068,1.099,1.684,1.499
	c-1.154-0.403-2.263-0.979-3.289-1.724l-9.177-6.666c-4.849-3.524-7.471-9.352-6.894-15.317l1.589-16.472
	C34.346,17.838,43.704,9.24,54.956,9.076c-6.931,0.168-14.778,6.701-15.188,13.658L37.379,48.79z"/>
<path fill="#E0B394" d="M57.856,41.472v7.936c0,1.421-1.15,2.571-2.571,2.571l0,0c-1.419,0-2.569-1.15-2.569-2.571v-7.936H57.856z"
	/>
<g>
	<circle fill="#C0E7F9" cx="45.111" cy="40.689" r="6.382"/>
	<circle fill="#C0E7F9" cx="65.085" cy="40.689" r="6.382"/>
</g>
<g>
	<path fill="#9DC4D1" d="M66.742,41.696h-3.313c-0.555,0-1.006-0.45-1.006-1.006c0-0.555,0.451-1.006,1.006-1.006h3.313
		c0.556,0,1.006,0.451,1.006,1.006C67.748,41.246,67.298,41.696,66.742,41.696z"/>
	<path fill="#9DC4D1" d="M46.768,41.696h-3.313c-0.556,0-1.006-0.45-1.006-1.006c0-0.555,0.45-1.006,1.006-1.006h3.313
		c0.556,0,1.007,0.451,1.007,1.006C47.775,41.246,47.324,41.696,46.768,41.696z"/>
</g>
<path fill="#808080" d="M79.09,36.787c-0.291-0.543-0.969-0.747-1.513-0.455l-5.161,2.779c-0.728-3.38-3.737-5.92-7.331-5.92
	c-3.756,0-6.874,2.775-7.416,6.381h-5.141c-0.542-3.606-3.661-6.381-7.417-6.381c-3.529,0-6.496,2.451-7.289,5.741l-4.826-2.599
	c-0.544-0.292-1.222-0.089-1.514,0.455c-0.293,0.543-0.089,1.221,0.455,1.514l5.708,3.074c0.348,3.815,3.563,6.815,7.467,6.815
	c3.756,0,6.875-2.776,7.417-6.382h5.141c0.542,3.606,3.66,6.382,7.416,6.382c3.832,0,6.999-2.888,7.444-6.601l6.107-3.288
	C79.181,38.009,79.384,37.331,79.09,36.787z M45.111,45.955c-2.902,0-5.264-2.361-5.264-5.265c0-2.903,2.362-5.264,5.264-5.264
	c2.903,0,5.265,2.361,5.265,5.264C50.376,43.594,48.015,45.955,45.111,45.955z M65.085,45.955c-2.902,0-5.265-2.361-5.265-5.265
	c0-2.903,2.362-5.264,5.265-5.264c2.904,0,5.265,2.361,5.265,5.264C70.35,43.594,67.989,45.955,65.085,45.955z"/>
<path fill="#EA8249" d="M87.479,30.854c0,0-7.824-0.895-9.647,3.702c-4.73,0-5.777-10.409-5.777-10.409
	c-3.802,3.799-2.236,6.93-2.236,6.93c-7.923,0-14.761-8.448-14.974-8.712c-0.003-0.002-0.003-0.004-0.006-0.006
	c0,5.588,2.908,8.942,2.908,8.942c-8.272,0-13.861-7.601-13.861-7.601l-2.1,2.211l-2.147,2.26C37.625,32.865,33,33.207,33,33.207
	c-3.604,1.028-9.683-4.59-9.683-4.59c12.408-1.9,13.928-10.234,13.928-10.234c-3.905-1.717-8.884,1.652-9.007,1.737
	c6.036-10.281,16.767-8.517,16.767-8.517c0-4.496-6.709-7.353-6.709-7.353c11.178-1.789,16.99,4.822,16.99,4.822
	s-0.448-4.598,4.694-7.505c0,0-0.474,4.107,1.999,8.538c0,0,3.366-5,13.203-2.502c0,0-4.754,1.733-4.754,7.46
	c0,0,7.437,0.364,13.696,6.624c0,0-5.908,0.626-7.259,4.616C76.866,26.303,83.231,26.605,87.479,30.854z"/>
<path fill="#D36F3D" d="M43.885,23.699l-2.828,4.471C36.883,33.897,33,33.208,33,33.208c-3.604,1.028-9.683-4.59-9.683-4.59
	c12.408-1.9,12.076-10.234,12.076-10.234c-3.905-1.717-7.033,1.652-7.155,1.737c6.036-10.28,16.767-8.517,16.767-8.517
	s4.883,1.02,7.23,3.367c0,0-0.054,0.002-0.152,0.01c-4.166,0.311-7.53,3.526-8.063,7.669L43.885,23.699z"/>
<path fill="#C49270" d="M56.851,58.352h-3.13c-0.617,0-1.118-0.501-1.118-1.118s0.501-1.119,1.118-1.119h3.13
	c0.617,0,1.118,0.502,1.118,1.119S57.469,58.352,56.851,58.352z"/>
<g>
	<path fill="#D36F3D" d="M36.677,52.123l-1.91,4.919c-0.551-0.768-1.039-1.582-1.452-2.432l1.276-3.298
		c0.223-0.574,0.871-0.86,1.446-0.638C36.615,50.897,36.898,51.546,36.677,52.123z"/>
	<path fill="#D36F3D" d="M43.813,54.386l-3.041,8.078L38.897,61.1l2.823-7.503c0.217-0.577,0.863-0.868,1.44-0.651
		C43.739,53.163,44.03,53.809,43.813,54.386z"/>
	<path fill="#D36F3D" d="M48.778,59.927l-1.542,7.233l-1.979-1.437l1.335-6.265c0.129-0.604,0.722-0.987,1.326-0.859
		C48.521,58.728,48.909,59.32,48.778,59.927z"/>
	<path fill="#D36F3D" d="M55.957,65.057v4.902c-0.747,0.041-1.494,0.014-2.235-0.078v-4.824c0-0.617,0.5-1.117,1.116-1.117
		C55.455,63.939,55.957,64.439,55.957,65.057z"/>
	<path fill="#D36F3D" d="M70.973,61.61l-1.875,1.364l-3.233-8.589c-0.216-0.577,0.076-1.223,0.653-1.441
		c0.58-0.216,1.223,0.075,1.439,0.652L70.973,61.61z"/>
	<path fill="#D36F3D" d="M64.541,66.285l-1.71,1.242c-0.09,0.064-0.18,0.128-0.271,0.19l-1.662-7.79
		c-0.127-0.605,0.258-1.2,0.861-1.328s1.199,0.256,1.326,0.859L64.541,66.285z"/>
	<path fill="#D36F3D" d="M75.237,57.789c-0.053-0.071-0.097-0.152-0.13-0.239l-2.104-5.427c-0.226-0.577,0.062-1.226,0.636-1.448
		c0.577-0.223,1.224,0.063,1.446,0.638l1.655,4.273L75.237,57.789z"/>
</g>
<path fill="#F9C573" d="M85.097,78.209c0,0-2.941-10.708,1.922-21.068c4.863-10.361,12.89-10.38,12.89-10.38
	s0.87,7.301-2.669,13.836C93.698,67.13,87.789,70.754,85.097,78.209z"/>
<path fill="#999999" d="M93.757,54.71c0,0-0.046,0.124-0.128,0.356c-0.088,0.232-0.215,0.568-0.378,0.998
	c-0.325,0.847-0.788,2.058-1.346,3.51c-0.287,0.718-0.563,1.508-0.885,2.328c-0.294,0.833-0.634,1.695-0.942,2.603
	c-0.153,0.453-0.331,0.907-0.486,1.372c-0.154,0.469-0.313,0.94-0.479,1.413c-0.174,0.47-0.299,0.96-0.466,1.438
	c-0.154,0.482-0.324,0.962-0.455,1.453c-0.148,0.486-0.295,0.973-0.441,1.456c-0.142,0.486-0.271,0.974-0.405,1.455
	c-0.13,0.481-0.278,0.957-0.39,1.434c-0.118,0.476-0.231,0.945-0.356,1.408c-0.134,0.459-0.21,0.92-0.32,1.366
	c-0.104,0.448-0.2,0.888-0.305,1.314c-0.173,0.858-0.334,1.674-0.497,2.429c-0.134,0.755-0.251,1.452-0.372,2.073
	c-0.03,0.156-0.06,0.306-0.087,0.451c-0.022,0.145-0.043,0.287-0.063,0.421c-0.041,0.271-0.079,0.519-0.115,0.744
	c-0.07,0.45-0.143,0.806-0.183,1.05c-0.049,0.244-0.073,0.372-0.073,0.372s-0.023-0.128-0.069-0.371
	c-0.037-0.243-0.104-0.599-0.168-1.055c-0.032-0.229-0.066-0.483-0.106-0.759c-0.019-0.137-0.039-0.282-0.053-0.433
	c-0.011-0.148-0.02-0.304-0.03-0.463c-0.039-0.641-0.079-1.367-0.1-2.16c0.016-0.791,0.035-1.649,0.084-2.559
	c0.038-0.453,0.089-0.916,0.137-1.393c0.048-0.475,0.095-0.963,0.182-1.449c0.075-0.49,0.165-0.987,0.252-1.491
	c0.075-0.505,0.203-1.006,0.32-1.514c0.122-0.505,0.224-1.022,0.37-1.527c0.145-0.506,0.292-1.015,0.439-1.521
	c0.146-0.509,0.326-1.005,0.494-1.504c0.085-0.249,0.171-0.496,0.261-0.743c0.087-0.247,0.177-0.491,0.276-0.731
	c0.377-0.968,0.769-1.912,1.192-2.805c0.207-0.448,0.409-0.89,0.635-1.309c0.22-0.422,0.426-0.838,0.643-1.234
	c0.448-0.788,0.864-1.534,1.294-2.196c0.214-0.331,0.41-0.654,0.612-0.952c0.206-0.295,0.396-0.576,0.582-0.837
	c0.364-0.526,0.716-0.969,0.995-1.332c0.281-0.362,0.524-0.632,0.681-0.822C93.67,54.809,93.757,54.71,93.757,54.71z"/>
<rect x="78.324" y="80.116" fill="#5D9EBA" width="12.297" height="8.479"/>
<rect x="78.324" y="80.116" fill="#508DA3" width="4.538" height="7.837"/>
<path fill="#5D9EBA" d="M89.302,85.704h-9.659c-3.321,0-6.012,2.691-6.012,6.011v0.274c0,3.319,2.69,6.011,6.012,6.011h9.659
	c3.32,0,6.011-2.691,6.011-6.011v-0.274C95.313,88.396,92.622,85.704,89.302,85.704z"/>
<path fill="#508DA3" d="M79.445,91.852L79.445,91.852c0-3.394,2.752-6.147,6.146-6.147h-5.813c-3.396,0-6.147,2.754-6.147,6.147l0,0
	c0,3.396,2.751,6.148,6.147,6.148h5.813C82.197,98,79.445,95.248,79.445,91.852z"/>
<g>
	<circle fill="#5D9EBA" cx="38.896" cy="91.052" r="1.564"/>
	<circle fill="#5D9EBA" cx="44.262" cy="94.259" r="1.565"/>
	<circle fill="#5D9EBA" cx="45.236" cy="88.586" r="1.565"/>
	<circle fill="#5D9EBA" cx="69.66" cy="80.529" r="1.564"/>
</g>
<g>
	<path fill="#D36F3D" d="M69.817,31.077c-7.923,0-14.761-8.448-14.974-8.712c-1.416-3.484,2.757-2.924,2.757-2.924
		C59.091,26.444,69.817,31.077,69.817,31.077z"/>
	<path fill="#D36F3D" d="M57.746,31.3c-8.272,0-13.861-7.601-13.861-7.601l-2.1,2.211l-2.016-3.177c0,0,0.838-11.062,4.268-3.293
		C47.468,27.209,57.746,31.3,57.746,31.3z"/>
</g>
</svg>
